<svg xmlns="http://www.w3.org/2000/svg" viewBox="0 0 38 57" fill="none">
  <path fill="#1ABCFE" d="M19 28.5C19 23.2533 23.2533 19 28.5 19C33.7467 19 38 23.2533 38 28.5C38 33.7467 33.7467 38 28.5 38C23.2533 38 19 33.7467 19 28.5Z"/>
  <path fill="#0ACF83" d="M0 47.5C0 42.2533 4.25329 38 9.5 38H19V47.5C19 52.7467 14.7467 57 9.5 57C4.25329 57 0 52.7467 0 47.5Z"/>
  <path fill="#FF7262" d="M19 0V19H28.5C33.7467 19 38 14.7467 38 9.5C38 4.25329 33.7467 0 28.5 0H19Z"/>
  <path fill="#F24E1E" d="M0 9.5C0 14.7467 4.25329 19 9.5 19H19V0H9.5C4.25329 0 0 4.25329 0 9.5Z"/>
  <path fill="#A259FF" d="M0 28.5C0 33.7467 4.25329 38 9.5 38H19V19H9.5C4.25329 19 0 23.2533 0 28.5Z"/>
</svg>
