<svg xmlns="http://www.w3.org/2000/svg" viewBox="0 0 100 100" fill="currentColor">
  <path d="M73.56,13.32H58.14a8.54,8.54,0,0,0-16.27,0H26.44a11,11,0,0,0-11,11V81.63a11,11,0,0,0,11,11H73.56a11,11,0,0,0,11-11V24.32A11,11,0,0,0,73.56,13.32Zm-30.92,2a3.54,3.54,0,1,1,3.53,3.53A3.53,3.53,0,0,1,42.64,15.32ZM78.56,81.63a5,5,0,0,1-5,5H26.44a5,5,0,0,1-5-5V24.32a5,5,0,0,1,5-5h8.49a8.53,8.53,0,0,0,8.13,6H56.94a8.54,8.54,0,0,0,8.13-6h8.49a5,5,0,0,1,5,5Z"/>
  <path d="M71.3,42.67l-5.17-4.47a1.5,1.5,0,0,0-2.13.19l-19.32,22.37-8.87-7.67a1.5,1.5,0,0,0-2.13.19l-4.47,5.17a1.5,1.5,0,0,0,.19,2.13l15.19,13.13a1.49,1.49,0,0,0,2.13-.19L71.49,44.8A1.5,1.5,0,0,0,71.3,42.67Z"/>
</svg>
