<svg xmlns="http://www.w3.org/2000/svg" viewBox="0 0 400 400">
  <rect fill="#3178c6" height="400" rx="20" width="400"/>
  <path clip-rule="evenodd" d="m231.007 291.311v49.897c8.158 4.193 17.808 7.33 28.95 9.407 11.142 2.078 22.843 3.117 35.102 3.117 11.878 0 22.985-1.135 33.322-3.406 10.338-2.271 19.348-5.866 27.03-10.786 7.682-4.92 13.726-11.244 18.131-18.97 4.406-7.727 6.609-17.042 6.609-27.945 0-7.918-1.158-14.901-3.474-20.95-2.317-6.05-5.599-11.436-9.849-16.162-4.25-4.725-9.369-8.995-15.358-12.809-5.99-3.813-12.64-7.338-19.95-10.577-5.336-2.367-10.195-4.63-14.576-6.789-4.381-2.159-8.13-4.318-11.247-6.476-3.117-2.159-5.528-4.413-7.231-6.764-1.704-2.35-2.556-4.92-2.556-7.71 0-2.558.708-4.872 2.124-6.944 1.416-2.07 3.445-3.861 6.086-5.372 2.64-1.511 5.857-2.686 9.65-3.525 3.793-.839 8.034-1.259 12.722-1.259 3.412 0 7.016.24 10.81.718 3.793.48 7.634 1.23 11.524 2.254 3.889 1.023 7.634 2.302 11.235 3.837 3.6 1.535 6.898 3.358 9.896 5.469v-46.292c-6.32-2.463-13.394-4.27-21.223-5.421-7.828-1.152-16.799-1.727-26.914-1.727-11.878 0-22.985 1.295-33.323 3.885-10.337 2.591-19.395 6.572-27.174 11.943-7.778 5.372-13.893 12.04-18.346 20.002-4.453 7.964-6.68 17.38-6.68 28.248 0 13.029 3.793 24.29 11.38 33.782 7.586 9.493 18.799 17.38 33.638 23.662 5.91 2.463 11.38 4.815 16.413 7.054 5.032 2.24 9.393 4.527 13.084 6.86 3.69 2.335 6.584 4.863 8.681 7.586 2.097 2.723 3.145 5.757 3.145 9.1 0 2.367-.565 4.558-1.693 6.572-1.128 2.014-2.869 3.766-5.22 5.254-2.35 1.487-5.315 2.655-8.897 3.502-3.58.847-7.778 1.27-12.591 1.27-8.349 0-16.699-1.39-25.047-4.172-8.35-2.78-16.177-6.954-23.485-12.52zm-81.426-114.476h54.973v-40.055h-158.09v40.055h54.973v150.232h48.144z" fill="#fff" fill-rule="evenodd"/>
</svg>
