<?xml version="1.0" standalone="no"?><!DOCTYPE svg PUBLIC "-//W3C//DTD SVG 1.1//EN" "http://www.w3.org/Graphics/SVG/1.1/DTD/svg11.dtd"><svg t="1709476657965" class="icon" viewBox="0 0 2048 1024" version="1.1" xmlns="http://www.w3.org/2000/svg" p-id="6251" xmlns:xlink="http://www.w3.org/1999/xlink" width="256" height="128"><path d="M1310.72 286.72h-126.293v-71.68h235.52v64.853l-119.467 174.08s47.787 3.414 68.267 10.24c27.306 6.827 61.44 23.894 61.44 23.894v71.68s-81.92-27.307-126.294-27.307c-54.613 0-126.293 27.307-126.293 27.307V481.28l133.12-194.56zM310.613 512l-34.133-34.133v-194.56c0-40.96-71.68-78.507-126.293-78.507C71.68 204.8 10.24 256 6.827 320.853h81.92c6.826-27.306 27.306-44.373 54.613-44.373s47.787 17.067 47.787 44.373v30.72H122.88c-17.067 0-34.133 3.414-47.787 10.24-61.44 27.307-88.746 92.16-64.853 146.774s92.16 78.506 153.6 51.2c17.067-6.827 30.72-17.067 40.96-30.72l44.373 44.373 61.44-61.44z m-204.8-17.067c-20.48-20.48-13.653-54.613 10.24-78.506 6.827-6.827 17.067-13.654 23.894-13.654h51.2v75.094l-6.827 6.826c-23.893 23.894-58.027 27.307-78.507 10.24zM1143.467 512l-34.134-34.133v-194.56c0-40.96-71.68-78.507-126.293-78.507-78.507 0-139.947 51.2-143.36 116.053h81.92c6.827-27.306 27.307-44.373 54.613-44.373S1024 293.547 1024 320.853v30.72h-71.68c-17.067 0-34.133 3.414-47.787 10.24-61.44 27.307-88.746 92.16-64.853 146.774s92.16 78.506 153.6 51.2c17.067-6.827 30.72-17.067 40.96-30.72l44.373 44.373 64.854-61.44zM942.08 494.933c-20.48-20.48-13.653-54.613 10.24-78.506 6.827-6.827 17.067-13.654 23.893-13.654h51.2v75.094L1024 481.28c-27.307 27.307-61.44 30.72-81.92 13.653zM774.827 300.373zM686.08 204.8c-37.547 0-68.267 23.893-81.92 64.853-17.067-40.96-47.787-64.853-85.333-64.853s-68.267 30.72-81.92 71.68v-61.44h-85.334v358.4h85.334V341.333c0-30.72 23.893-51.2 51.2-51.2 13.653 0 37.546 23.894 37.546 37.547v242.347h85.334V331.093c3.413-20.48 27.306-40.96 47.786-37.546 17.067 0 37.547 23.893 37.547 40.96V573.44h85.333V300.373C768 245.76 744.107 204.8 686.08 204.8z" fill="#221E1F" p-id="6252"></path><path d="M774.827 303.787v13.653c3.413-3.413 3.413-10.24 0-13.653zM1962.667 204.8c-37.547 0-68.267 30.72-81.92 71.68v-61.44h-85.334v358.4h85.334V341.333c0-30.72 23.893-51.2 51.2-51.2 13.653 0 37.546 23.894 37.546 37.547v242.347H2048V286.72c0-47.787-47.787-81.92-85.333-81.92z m-358.4 0c-81.92 0-146.774 81.92-146.774 187.733 0 102.4 64.854 187.734 146.774 187.734s146.773-81.92 146.773-187.734c-3.413-102.4-68.267-187.733-146.773-187.733z m44.373 252.587c0 23.893-20.48 44.373-44.373 44.373h-3.414c-23.893 0-44.373-20.48-44.373-44.373v-133.12c0-23.894 20.48-44.374 44.373-44.374h3.414c23.893 0 44.373 20.48 44.373 44.374v133.12z" fill="#221E1F" p-id="6253"></path><path d="M310.613 604.16s225.28 143.36 525.654 146.773c300.373 3.414 409.6-85.333 436.906-92.16s20.48 23.894 0 40.96S996.693 849.92 795.307 829.44 406.187 727.04 307.2 628.053c-30.72-34.133 3.413-23.893 3.413-23.893z" fill="#F59328" p-id="6254"></path><path d="M1191.253 631.467s122.88-23.894 133.12 0c10.24 23.893-23.893 112.64-37.546 136.533-10.24 17.067 13.653 20.48 23.893 10.24 10.24-13.653 68.267-85.333 61.44-163.84 0-27.307-20.48-34.133-58.027-34.133-23.893 0-105.813 17.066-136.533 34.133-3.413 3.413-6.827 20.48 13.653 17.067z" fill="#F59328" p-id="6255"></path></svg>