<?xml version="1.0" encoding="UTF-8"?>
<svg version="1.1" xmlns="http://www.w3.org/2000/svg" width="1024" height="1024">
<path d="M0 0 C337.92 0 675.84 0 1024 0 C1024 337.92 1024 675.84 1024 1024 C686.08 1024 348.16 1024 0 1024 C0 686.08 0 348.16 0 0 Z " fill="#1F5CFF" transform="translate(0,0)"/>
<path d="M0 0 C1.64231351 -0.00230582 3.284626 -0.00548317 4.92693633 -0.00945449 C9.42952267 -0.01779393 13.9320241 -0.01368111 18.43461072 -0.00748205 C23.29415609 -0.00295528 28.1536869 -0.00994232 33.01322937 -0.01544189 C42.52757749 -0.02433412 52.04189405 -0.02241493 61.5562434 -0.01661661 C69.28581659 -0.01210079 77.01538093 -0.01148687 84.74495506 -0.01366425 C85.84482339 -0.01397071 86.94469171 -0.01427718 88.07788938 -0.01459293 C90.31214892 -0.01523237 92.54640845 -0.0158808 94.78066798 -0.01653811 C115.72832622 -0.02224056 136.67596695 -0.01568415 157.62362232 -0.00493738 C175.61006748 0.00400428 193.59648683 0.00244086 211.58293152 -0.0067749 C232.46312866 -0.01746831 253.34331047 -0.02169781 274.22350997 -0.01555037 C276.44804521 -0.01491326 278.67258046 -0.01428452 280.89711571 -0.01366425 C281.99168545 -0.01335569 283.08625518 -0.01304714 284.2139937 -0.01272924 C291.93968171 -0.01099997 299.66536002 -0.01392226 307.39104652 -0.01862335 C316.79787827 -0.02422159 326.20467663 -0.02273783 335.61150453 -0.01206186 C340.4138574 -0.00679182 345.2161545 -0.00477108 350.018507 -0.01136017 C354.40943751 -0.01729389 358.80026026 -0.01408746 363.19118091 -0.00340506 C364.78452324 -0.00116012 366.37787457 -0.00233164 367.97121117 -0.00715664 C370.12747344 -0.01318846 372.28336058 -0.00705133 374.43960285 0.002285 C375.64011888 0.00260971 376.84063491 0.00293441 378.07753021 0.00326896 C380.98649597 0.25396729 380.98649597 0.25396729 383.98649597 2.25396729 C385.21892858 5.3350488 385.29739401 7.38704006 384.17399597 10.51959229 C381.49456683 16.1252401 378.12411096 21.13498003 374.43962097 26.12506104 C372.8252177 28.28172721 372.8252177 28.28172721 371.98649597 31.25396729 C371.32649597 31.25396729 370.66649597 31.25396729 369.98649597 31.25396729 C369.92462097 31.91396729 369.86274597 32.57396729 369.79899597 33.25396729 C368.40364224 38.40604261 365.34852582 42.64429565 361.92399597 46.69146729 C360.11614859 49.08249124 359.13365651 51.07578025 357.98649597 53.81646729 C356.4537254 57.4567974 354.83102034 59.4983343 351.98649597 62.25396729 C351.34567342 63.44326677 350.74582916 64.65500094 350.17399597 65.87896729 C348.15102579 70.16290413 345.53732287 73.8371618 342.78337097 77.67974854 C338.8942477 83.25134035 335.57241161 89.14765797 332.36149597 95.12896729 C331.00237774 97.62140774 329.97743649 99.26275224 327.92399597 101.25396729 C325.36978556 103.89057158 324.39239321 106.77532178 322.99821472 110.13677979 C321.76236436 112.72299946 320.10668089 114.35311184 317.98649597 116.25396729 C317.65649597 117.24396729 317.32649597 118.23396729 316.98649597 119.25396729 C316.32649597 119.58396729 315.66649597 119.91396729 314.98649597 120.25396729 C314.30302915 121.91381527 313.64061282 123.58233534 312.98649597 125.25396729 C310.44537404 130.16096136 307.90983422 133.33062903 303.98649597 137.25396729 C302.19328774 140.42042203 302.19328774 140.42042203 300.98649597 143.25396729 C300.32649597 143.25396729 299.66649597 143.25396729 298.98649597 143.25396729 C298.80087097 144.08927979 298.80087097 144.08927979 298.61149597 144.94146729 C297.92106243 147.49607138 297.09167913 149.84856864 295.98649597 152.25396729 C295.32649597 152.58396729 294.66649597 152.91396729 293.98649597 153.25396729 C293.31208466 154.91751518 292.64646388 156.5846367 291.98649597 158.25396729 C290.48649597 160.56646729 290.48649597 160.56646729 288.98649597 162.25396729 C288.32649597 162.25396729 287.66649597 162.25396729 286.98649597 162.25396729 C286.94524597 162.91396729 286.90399597 163.57396729 286.86149597 164.25396729 C285.78418915 167.94759066 283.89680634 170.15262847 281.53337097 173.14068604 C280.05014702 175.16700967 278.98316304 177.10870346 277.92399597 179.37896729 C276.64636566 182.11137832 275.27235072 184.28301393 273.29899597 186.56646729 C270.82959664 189.09288707 270.82959664 189.09288707 269.98649597 192.25396729 C268.50149597 193.24396729 268.50149597 193.24396729 266.98649597 194.25396729 C266.65649597 195.24396729 266.32649597 196.23396729 265.98649597 197.25396729 C265.32649597 197.25396729 264.66649597 197.25396729 263.98649597 197.25396729 C263.80087097 197.83146729 263.61524597 198.40896729 263.42399597 199.00396729 C261.24092387 202.4209497 258.61861782 203.46976708 254.98649597 205.25396729 C253.99649597 205.25396729 253.00649597 205.25396729 251.98649597 205.25396729 C251.98649597 205.91396729 251.98649597 206.57396729 251.98649597 207.25396729 C249.34649597 207.91396729 246.70649597 208.57396729 243.98649597 209.25396729 C243.98649597 209.91396729 243.98649597 210.57396729 243.98649597 211.25396729 C236.24694736 213.12041792 228.58062741 214.55485068 220.67399597 215.44146729 C219.94648132 215.52509521 219.21896667 215.60872314 218.46940613 215.69488525 C213.28726988 216.23994143 208.19658074 216.32082918 202.98649597 216.25396729 C202.98649597 216.91396729 202.98649597 217.57396729 202.98649597 218.25396729 C198.43403924 218.8299174 193.88082791 219.39933306 189.326828 219.96295166 C187.78071048 220.15520829 186.23480596 220.34918668 184.68913269 220.54498291 C182.45547169 220.82761529 180.22109422 221.10385531 177.98649597 221.37896729 C177.30595154 221.4664624 176.6254071 221.55395752 175.92424011 221.644104 C171.2352241 222.21298987 166.69882659 222.32759745 161.98649597 222.25396729 C161.98649597 222.91396729 161.98649597 223.57396729 161.98649597 224.25396729 C157.14949739 224.97339429 152.3114574 225.68519193 147.47233582 226.39019775 C145.8291306 226.63065894 144.18621914 226.87313703 142.54362488 227.11773682 C140.17117548 227.47065127 137.79773505 227.81609756 135.42399597 228.16021729 C134.33755798 228.32427063 134.33755798 228.32427063 133.22917175 228.49163818 C128.43480727 229.17713851 123.83013131 229.34931444 118.98649597 229.25396729 C118.98649597 229.91396729 118.98649597 230.57396729 118.98649597 231.25396729 C113.15258205 232.11576075 107.31762903 232.97000131 101.48161316 233.81744385 C99.49889232 234.10641555 97.51646403 234.39740238 95.53434753 234.69049072 C92.6754044 235.11286725 89.81546669 235.52784191 86.95524597 235.94146729 C86.07783752 236.07270996 85.20042908 236.20395264 84.2964325 236.33917236 C79.13365066 237.077243 74.20198324 237.38065928 68.98649597 237.25396729 C68.98649597 237.91396729 68.98649597 238.57396729 68.98649597 239.25396729 C68.29088562 239.32389893 67.59527527 239.39383057 66.87858582 239.46588135 C63.70418064 239.79479689 60.5331036 240.14912768 57.36149597 240.50396729 C56.26708191 240.6135376 55.17266785 240.72310791 54.04508972 240.83599854 C45.35009351 241.83724052 40.49267913 244.13910468 34.67399597 250.81646729 C33.99723816 251.58088135 33.32048035 252.34529541 32.62321472 253.13287354 C30.80572325 255.24761864 30.80572325 255.24761864 29.98649597 258.25396729 C29.20274597 258.87271729 28.41899597 259.49146729 27.61149597 260.12896729 C24.84104579 262.37171267 23.77861148 264.21133383 21.98649597 267.25396729 C20.66365197 269.04832004 19.3087009 270.81940967 17.92399597 272.56646729 C17.23176941 273.4494751 16.53954285 274.33248291 15.82633972 275.24224854 C14.91561707 276.23804932 14.91561707 276.23804932 13.98649597 277.25396729 C13.32649597 277.25396729 12.66649597 277.25396729 11.98649597 277.25396729 C11.83180847 278.08927979 11.83180847 278.08927979 11.67399597 278.94146729 C10.39937396 283.22883222 8.70960795 285.77189263 4.98649597 288.25396729 C4.65649597 289.24396729 4.32649597 290.23396729 3.98649597 291.25396729 C3.32649597 291.58396729 2.66649597 291.91396729 1.98649597 292.25396729 C0.96974656 293.91046914 -0.02761577 295.57891442 -1.01350403 297.25396729 C-2.23574653 298.85882482 -3.4871944 300.4417643 -4.76350403 302.00396729 C-5.46475403 302.87150635 -6.16600403 303.73904541 -6.88850403 304.63287354 C-7.58975403 305.49783447 -8.29100403 306.36279541 -9.01350403 307.25396729 C-13.16182386 312.39754933 -16.9061088 317.41206426 -20.01350403 323.25396729 C-20.67350403 323.25396729 -21.33350403 323.25396729 -22.01350403 323.25396729 C-22.01350403 326.55396729 -22.01350403 329.85396729 -22.01350403 333.25396729 C-21.22975403 333.56334229 -20.44600403 333.87271729 -19.63850403 334.19146729 C-17.01350403 335.25396729 -17.01350403 335.25396729 -15.01350403 336.25396729 C-13.11327033 336.35957714 -11.20932905 336.40060139 -9.30619812 336.41218567 C-7.48461685 336.4268689 -7.48461685 336.4268689 -5.62623596 336.44184875 C-4.27339212 336.4477533 -2.92054786 336.45356372 -1.56770325 336.45928955 C-0.14870415 336.46886567 1.27029207 336.4788756 2.68928528 336.48928833 C6.54852958 336.5163723 10.40778615 336.53736292 14.26707315 336.55729032 C18.29766494 336.57912837 22.32821874 336.60652771 26.35877991 336.63334656 C33.99437509 336.68330299 41.62999132 336.72823085 49.26562774 336.77136892 C57.95719038 336.82071611 66.64871491 336.87564356 75.34024072 336.93104851 C93.22229044 337.04491385 111.1043761 337.15174295 128.98649597 337.25396729 C128.98649597 337.91396729 128.98649597 338.57396729 128.98649597 339.25396729 C130.37868347 339.59427979 130.37868347 339.59427979 131.79899597 339.94146729 C134.98649597 341.25396729 134.98649597 341.25396729 136.86149597 343.44146729 C138.77701196 348.23025727 138.53723984 352.32456092 136.67399597 357.06646729 C134.98649597 360.25396729 134.98649597 360.25396729 131.98649597 362.25396729 C131.65649597 363.24396729 131.32649597 364.23396729 130.98649597 365.25396729 C130.32649597 365.25396729 129.66649597 365.25396729 128.98649597 365.25396729 C128.64618347 366.30584229 128.64618347 366.30584229 128.29899597 367.37896729 C127.15501173 369.88483754 126.18602405 371.34194061 124.42399597 373.37896729 C121.84431834 376.06000924 121.84431834 376.06000924 120.98649597 379.25396729 C119.34346644 380.94394052 117.67178285 382.60613122 115.98649597 384.25396729 C114.90964738 385.42847127 113.84737604 386.61648323 112.79899597 387.81646729 C112.31044128 388.37463135 111.8218866 388.93279541 111.31852722 389.50787354 C109.9092865 391.22940375 109.9092865 391.22940375 108.99821472 393.34381104 C107.98649597 395.25396729 107.98649597 395.25396729 104.98649597 397.25396729 C104.10687771 398.87787793 103.22805665 400.50222649 102.35368347 402.12896729 C100.03892043 405.72677041 97.00925253 408.69178974 94.10368347 411.81646729 C92.28153284 413.91429384 90.91951147 415.82045008 89.61149597 418.25396729 C87.98649597 421.25396729 87.98649597 421.25396729 84.98649597 423.25396729 C83.96451876 424.90724898 82.96764329 426.57613305 81.98649597 428.25396729 C80.53750269 430.11124045 79.05654051 431.94389695 77.54899597 433.75396729 C76.0276082 435.58684054 74.50676169 437.42016323 72.98649597 439.25396729 C72.25301941 440.13052979 71.51954285 441.00709229 70.76383972 441.91021729 C68.82306084 444.20883483 68.82306084 444.20883483 67.98649597 447.25396729 C67.34712097 447.72834229 66.70774597 448.20271729 66.04899597 448.69146729 C63.7972919 450.39730371 63.15916442 451.74110633 61.98649597 454.25396729 C61.32649597 454.58396729 60.66649597 454.91396729 59.98649597 455.25396729 C58.98131412 456.91751386 57.98236751 458.58483048 56.98649597 460.25396729 C54.69288445 463.12701751 52.32269119 465.92480465 49.94743347 468.73052979 C47.8315317 471.16483389 47.8315317 471.16483389 46.98649597 474.25396729 C45.99649597 474.91396729 45.00649597 475.57396729 43.98649597 476.25396729 C43.65649597 477.24396729 43.32649597 478.23396729 42.98649597 479.25396729 C41.31982931 480.92063395 39.65316264 482.58730062 37.98649597 484.25396729 C37.0699645 485.50995486 36.17400947 486.78121007 35.29899597 488.06646729 C34.15430847 489.64427979 34.15430847 489.64427979 32.98649597 491.25396729 C32.32649597 491.25396729 31.66649597 491.25396729 30.98649597 491.25396729 C30.88337097 491.81084229 30.78024597 492.36771729 30.67399597 492.94146729 C28.97442721 498.65819857 25.67403151 501.83597262 20.98649597 505.25396729 C19.99649597 505.25396729 19.00649597 505.25396729 17.98649597 505.25396729 C17.65649597 506.24396729 17.32649597 507.23396729 16.98649597 508.25396729 C14.18571472 509.42193604 14.18571472 509.42193604 10.67399597 510.44146729 C9.52286316 510.78564697 8.37173035 511.12982666 7.18571472 511.48443604 C3.98649597 512.25396729 3.98649597 512.25396729 -0.01350403 512.25396729 C-0.01350403 512.91396729 -0.01350403 513.57396729 -0.01350403 514.25396729 C-29.73859252 514.32239043 -59.46367836 514.37548875 -89.18882863 514.40716327 C-92.69736314 514.41091544 -96.20589749 514.4147984 -99.71443176 514.41876221 C-100.76217022 514.4199426 -100.76217022 514.4199426 -101.83107511 514.42114685 C-113.14414285 514.4342043 -124.4571649 514.45786 -135.77020552 514.48542567 C-147.37658516 514.51347044 -158.98293812 514.52991699 -170.58935004 514.53623277 C-177.10928157 514.54014926 -183.62910944 514.54937632 -190.1490078 514.57115746 C-196.28271986 514.59148291 -202.41628531 514.59780903 -208.55002785 514.59329033 C-210.80390341 514.59411729 -213.05778376 514.60010625 -215.31163025 514.61158371 C-218.38416377 514.62646591 -221.45614065 514.62293628 -224.52868652 514.61473083 C-225.42460422 514.62346936 -226.32052191 514.63220788 -227.24358863 514.64121121 C-231.92781204 514.60729948 -235.30392814 514.46118206 -239.01350403 511.25396729 C-239.88901738 507.7519139 -240.05835034 506.58544061 -239.01350403 503.25396729 C-235.03775381 497.16364223 -229.91350746 491.98490084 -224.70881653 486.93756104 C-220.16362967 482.42379252 -216.24231956 477.78907963 -213.01350403 472.25396729 C-210.95100403 469.94146729 -210.95100403 469.94146729 -209.01350403 468.25396729 C-208.35350403 468.25396729 -207.69350403 468.25396729 -207.01350403 468.25396729 C-207.01350403 467.26396729 -207.01350403 466.27396729 -207.01350403 465.25396729 C-206.35350403 465.25396729 -205.69350403 465.25396729 -205.01350403 465.25396729 C-204.76600403 464.63521729 -204.51850403 464.01646729 -204.26350403 463.37896729 C-203.01350403 461.25396729 -203.01350403 461.25396729 -200.95100403 460.25396729 C-200.31162903 459.92396729 -199.67225403 459.59396729 -199.01350403 459.25396729 C-198.85889709 458.63280029 -198.70429016 458.0116333 -198.54499817 457.37164307 C-197.66423568 453.86234869 -194.91148882 451.65758171 -192.45100403 449.12896729 C-187.93348679 444.37580603 -183.72525434 439.5141041 -179.69319153 434.33599854 C-177.64049856 431.79161399 -175.32315605 429.56361931 -173.01350403 427.25396729 C-172.59971497 426.52177979 -172.1859259 425.78959229 -171.75959778 425.03521729 C-169.52080479 421.46917566 -166.78579289 418.60483554 -163.88850403 415.56646729 C-160.02010639 411.72697387 -160.02010639 411.72697387 -157.01350403 407.25396729 C-156.02350403 407.25396729 -155.03350403 407.25396729 -154.01350403 407.25396729 C-153.93100403 406.67646729 -153.84850403 406.09896729 -153.76350403 405.50396729 C-152.79552616 402.60003368 -151.32656119 401.21656124 -149.01350403 399.25396729 C-148.35350403 399.25396729 -147.69350403 399.25396729 -147.01350403 399.25396729 C-146.91037903 398.69709229 -146.80725403 398.14021729 -146.70100403 397.56646729 C-144.98311096 391.78809969 -141.54856532 389.01710325 -137.01350403 385.25396729 C-136.31412871 383.9374961 -135.64621269 382.60374577 -135.01350403 381.25396729 C-133.3704745 379.56399405 -131.69879091 377.90180335 -130.01350403 376.25396729 C-128.20956366 374.16060351 -126.42787614 372.05135634 -124.66194153 369.92584229 C-123.01350403 368.25396729 -123.01350403 368.25396729 -120.01350403 367.25396729 C-119.65812874 365.92633884 -119.3279013 364.59189226 -119.01350403 363.25396729 C-117.6341095 361.45806885 -117.6341095 361.45806885 -115.88069153 359.64459229 C-115.2387384 358.97170166 -114.59678528 358.29881104 -113.93537903 357.60552979 C-113.25991028 356.91201416 -112.58444153 356.21849854 -111.88850403 355.50396729 C-110.57204669 354.13547606 -109.25693866 352.76568552 -107.94319153 351.39459229 C-107.29028137 350.71372559 -106.63737122 350.03285889 -105.9646759 349.33135986 C-103.42558593 346.62801695 -100.98992035 343.84338995 -98.56282043 341.03961182 C-96.03153115 338.12220718 -93.41620417 335.28052124 -90.81037903 332.42974854 C-88.93213725 330.15544273 -87.50482788 327.79381296 -86.01350403 325.25396729 C-83.95100403 322.94146729 -83.95100403 322.94146729 -82.01350403 321.25396729 C-81.35350403 321.25396729 -80.69350403 321.25396729 -80.01350403 321.25396729 C-75.95365936 311.03185838 -76.30431661 304.15990846 -80.13850403 293.85552979 C-81.01350403 291.25396729 -81.01350403 291.25396729 -81.01350403 288.25396729 C-81.67350403 288.25396729 -82.33350403 288.25396729 -83.01350403 288.25396729 C-84.00350403 285.28396729 -84.99350403 282.31396729 -86.01350403 279.25396729 C-86.67350403 279.25396729 -87.33350403 279.25396729 -88.01350403 279.25396729 C-89.01986953 276.81892219 -90.01876816 274.38125864 -91.01350403 271.94146729 C-91.2996759 271.25117432 -91.58584778 270.56088135 -91.88069153 269.84967041 C-93.10261147 266.83851055 -94.01350403 264.53509745 -94.01350403 261.25396729 C-94.67350403 261.25396729 -95.33350403 261.25396729 -96.01350403 261.25396729 C-96.47241028 260.26396729 -96.93131653 259.27396729 -97.40412903 258.25396729 C-98.02380954 256.92058229 -98.64360889 255.58725252 -99.26350403 254.25396729 C-99.74122253 253.22372437 -99.74122253 253.22372437 -100.22859192 252.17266846 C-101.89515388 248.59347784 -103.60815106 245.05923915 -105.45100403 241.56646729 C-107.01350403 238.25396729 -107.01350403 238.25396729 -107.01350403 234.25396729 C-107.67350403 234.25396729 -108.33350403 234.25396729 -109.01350403 234.25396729 C-109.85090184 232.13056569 -110.68330686 230.00519448 -111.51350403 227.87896729 C-111.97756653 226.69560791 -112.44162903 225.51224854 -112.91975403 224.29302979 C-114.01350403 221.25396729 -114.01350403 221.25396729 -114.01350403 219.25396729 C-114.67350403 219.25396729 -115.33350403 219.25396729 -116.01350403 219.25396729 C-116.6840829 217.46376119 -117.34985093 215.6717524 -118.01350403 213.87896729 C-118.38475403 212.88123291 -118.75600403 211.88349854 -119.13850403 210.85552979 C-120.01350403 208.25396729 -120.01350403 208.25396729 -120.01350403 206.25396729 C-120.67350403 206.25396729 -121.33350403 206.25396729 -122.01350403 206.25396729 C-122.68437523 204.63069858 -123.35007432 203.0052915 -124.01350403 201.37896729 C-124.38475403 200.47404541 -124.75600403 199.56912354 -125.13850403 198.63677979 C-126.01350403 196.25396729 -126.01350403 196.25396729 -126.01350403 194.25396729 C-126.67350403 194.25396729 -127.33350403 194.25396729 -128.01350403 194.25396729 C-129.01986953 191.81892219 -130.01876816 189.38125864 -131.01350403 186.94146729 C-131.2996759 186.25117432 -131.58584778 185.56088135 -131.88069153 184.84967041 C-133.10261147 181.83851055 -134.01350403 179.53509745 -134.01350403 176.25396729 C-134.67350403 176.25396729 -135.33350403 176.25396729 -136.01350403 176.25396729 C-136.85069786 173.96364417 -137.68339692 171.67185772 -138.51350403 169.37896729 C-138.87121887 168.40250244 -138.87121887 168.40250244 -139.23616028 167.40631104 C-141.01350403 162.48052979 -141.01350403 162.48052979 -141.01350403 160.25396729 C-141.67350403 160.25396729 -142.33350403 160.25396729 -143.01350403 160.25396729 C-143.06756525 158.3167735 -143.10632428 156.37914807 -143.13850403 154.44146729 C-143.16170715 153.36252197 -143.18491028 152.28357666 -143.20881653 151.17193604 C-143.01350403 148.25396729 -143.01350403 148.25396729 -141.01350403 145.25396729 C-140.35350403 145.25396729 -139.69350403 145.25396729 -139.01350403 145.25396729 C-138.91940247 144.68677979 -138.8253009 144.11959229 -138.72834778 143.53521729 C-137.84481436 140.71563523 -136.45046027 139.02981436 -134.57600403 136.75396729 C-131.99349986 133.60828854 -131.99349986 133.60828854 -129.97834778 130.09771729 C-129.01350403 128.25396729 -129.01350403 128.25396729 -126.01350403 126.25396729 C-124.91459338 124.56483483 -124.91459338 124.56483483 -124.01350403 122.69146729 C-122.01350403 119.25396729 -122.01350403 119.25396729 -119.01350403 118.25396729 C-118.67737179 116.9213368 -118.34465738 115.58784372 -118.01350403 114.25396729 C-116.76362087 112.53984182 -115.44332554 110.87596171 -114.07600403 109.25396729 C-111.63928963 106.35290622 -109.54985694 103.72885973 -108.01350403 100.25396729 C-107.35350403 100.25396729 -106.69350403 100.25396729 -106.01350403 100.25396729 C-105.93100403 99.69838135 -105.84850403 99.14279541 -105.76350403 98.57037354 C-104.77288073 95.5107922 -103.08312447 93.64175006 -101.01350403 91.19146729 C-97.92792811 87.55780925 -97.92792811 87.55780925 -96.01350403 83.25396729 C-94.34683736 81.58730062 -92.68017069 79.92063395 -91.01350403 78.25396729 C-90.29162903 77.16084229 -89.56975403 76.06771729 -88.82600403 74.94146729 C-88.22787903 74.05459229 -87.62975403 73.16771729 -87.01350403 72.25396729 C-86.35350403 72.25396729 -85.69350403 72.25396729 -85.01350403 72.25396729 C-84.90772034 71.67131104 -84.80193665 71.08865479 -84.69294739 70.48834229 C-83.91454973 67.92855237 -82.86296425 66.54220654 -81.14241028 64.50396729 C-80.56813293 63.81302979 -79.99385559 63.12209229 -79.4021759 62.41021729 C-78.49822083 61.34287354 -78.49822083 61.34287354 -77.57600403 60.25396729 C-76.38634458 58.84020622 -75.20002099 57.42362987 -74.01741028 56.00396729 C-73.48961975 55.38006104 -72.96182922 54.75615479 -72.41804504 54.11334229 C-71.0025917 52.2395212 -69.99302514 50.3831818 -69.01350403 48.25396729 C-68.35350403 48.25396729 -67.69350403 48.25396729 -67.01350403 48.25396729 C-66.95162903 47.71771729 -66.88975403 47.18146729 -66.82600403 46.62896729 C-65.61315139 43.08370572 -63.56739477 40.99472808 -61.01350403 38.25396729 C-60.35350403 38.25396729 -59.69350403 38.25396729 -59.01350403 38.25396729 C-58.8979718 37.65705078 -58.78243958 37.06013428 -58.66340637 36.44512939 C-57.61887328 32.92345978 -55.03872445 30.50902225 -52.63850403 27.81646729 C-49.35428429 24.10033844 -46.52919105 20.55033638 -44.01350403 16.25396729 C-42.38089688 14.87914022 -40.7112534 13.54749062 -39.01350403 12.25396729 C-38.22975403 11.40834229 -37.44600403 10.56271729 -36.63850403 9.69146729 C-32.92095078 6.23945355 -29.21450172 4.25396729 -24.01350403 4.25396729 C-24.01350403 3.59396729 -24.01350403 2.93396729 -24.01350403 2.25396729 C-16.13256894 -0.3320407 -8.19843085 -0.0250162 0 0 Z " fill="#FEFEFF" transform="translate(352.0135040283203,243.74603271484375)"/>
<path d="M0 0 C1.45309626 -0.00271529 2.90619114 -0.00627923 4.35928345 -0.01062012 C8.27622514 -0.01967756 12.19306058 -0.01622883 16.11000395 -0.00986195 C20.21873464 -0.00477314 24.32745667 -0.00950083 28.43618774 -0.01263428 C35.32726668 -0.0162631 42.2183026 -0.01150078 49.109375 -0.00195312 C57.07455701 0.0089553 65.03963682 0.00538423 73.00481641 -0.00560594 C79.8551389 -0.01467885 86.70543062 -0.01596485 93.55575716 -0.0107286 C97.64252883 -0.00761225 101.7292524 -0.00719088 105.81602097 -0.01380157 C109.65252101 -0.01957537 113.48888885 -0.01557761 117.3253746 -0.00401306 C118.73307577 -0.00136777 120.14078806 -0.00212935 121.5484848 -0.00653839 C123.46895451 -0.01199946 125.38944852 -0.00393851 127.30990601 0.00482178 C128.38463354 0.00557583 129.45936108 0.00632988 130.56665611 0.00710678 C133.33547692 0.25817172 134.98584476 0.82991008 137.34228516 2.25878906 C138.18896087 9.03219476 138.18896087 9.03219476 135.81884766 12.46582031 C134.56930405 13.84031828 133.28735513 15.18622442 131.97119141 16.49707031 C130.11093757 18.26639417 130.11093757 18.26639417 129.34228516 21.25878906 C128.68228516 21.58878906 128.02228516 21.91878906 127.34228516 22.25878906 C126.4977775 23.83577785 125.71451402 25.4459473 124.96728516 27.07128906 C123.1321831 30.87603145 121.37694094 33.3220254 118.34228516 36.25878906 C117.26756797 38.23542577 116.31493098 40.25390515 115.35009766 42.28613281 C113.99898869 44.93074532 112.36966416 47.09625145 110.34228516 49.25878906 C109.68228516 49.25878906 109.02228516 49.25878906 108.34228516 49.25878906 C108.23916016 49.98066406 108.13603516 50.70253906 108.02978516 51.44628906 C106.92328542 55.97287889 104.3490012 59.72916588 101.34228516 63.25878906 C100.68228516 63.25878906 100.02228516 63.25878906 99.34228516 63.25878906 C99.21853516 64.00128906 99.09478516 64.74378906 98.96728516 65.50878906 C98.03579877 69.60732917 96.94763555 71.66896047 93.90478516 74.63378906 C91.20668702 77.39769447 90.00313562 79.79868393 88.34228516 83.25878906 C87.08317072 85.09271661 85.77261416 86.87335538 84.42822266 88.64550781 C83.15047671 90.3885235 83.15047671 90.3885235 82.34228516 93.25878906 C81.74416016 93.79503906 81.14603516 94.33128906 80.52978516 94.88378906 C78.3738762 97.22449022 77.54262727 98.86468356 76.34228516 101.75878906 C74.83921623 105.38278925 73.29286833 107.61343863 70.34228516 110.25878906 C70.01228516 111.24878906 69.68228516 112.23878906 69.34228516 113.25878906 C68.74416016 113.83628906 68.14603516 114.41378906 67.52978516 115.00878906 C64.76987171 117.84755718 63.21717697 120.77684712 61.34228516 124.25878906 C60.68228516 124.25878906 60.02228516 124.25878906 59.34228516 124.25878906 C59.23916016 124.79503906 59.13603516 125.33128906 59.02978516 125.88378906 C58.15408984 128.90891834 56.86981354 131.50923796 55.34228516 134.25878906 C54.68228516 134.58878906 54.02228516 134.91878906 53.34228516 135.25878906 C53.01228516 136.24878906 52.68228516 137.23878906 52.34228516 138.25878906 C51.68228516 138.25878906 51.02228516 138.25878906 50.34228516 138.25878906 C50.19791016 138.87753906 50.05353516 139.49628906 49.90478516 140.13378906 C49.34228516 142.25878906 49.34228516 142.25878906 48.34228516 144.25878906 C47.68228516 144.25878906 47.02228516 144.25878906 46.34228516 144.25878906 C46.23013672 144.82082031 46.11798828 145.38285156 46.00244141 145.96191406 C45.25171177 148.57392014 44.1306114 150.65350228 42.77978516 153.00878906 C42.32474609 153.80800781 41.86970703 154.60722656 41.40087891 155.43066406 C41.05154297 156.03394531 40.70220703 156.63722656 40.34228516 157.25878906 C39.68228516 157.25878906 39.02228516 157.25878906 38.34228516 157.25878906 C38.23916016 157.79503906 38.13603516 158.33128906 38.02978516 158.88378906 C37.16135819 161.8838095 35.78608219 164.49674256 34.34228516 167.25878906 C33.68228516 167.25878906 33.02228516 167.25878906 32.34228516 167.25878906 C32.07416016 168.16628906 31.80603516 169.07378906 31.52978516 170.00878906 C30.44096884 172.9887074 29.47837415 174.94469266 27.34228516 177.25878906 C26.68228516 177.25878906 26.02228516 177.25878906 25.34228516 177.25878906 C25.23916016 177.79503906 25.13603516 178.33128906 25.02978516 178.88378906 C24.16135819 181.8838095 22.78608219 184.49674256 21.34228516 187.25878906 C20.68228516 187.25878906 20.02228516 187.25878906 19.34228516 187.25878906 C19.07416016 188.16628906 18.80603516 189.07378906 18.52978516 190.00878906 C17.44096884 192.9887074 16.47837415 194.94469266 14.34228516 197.25878906 C13.68228516 197.25878906 13.02228516 197.25878906 12.34228516 197.25878906 C12.23916016 197.79503906 12.13603516 198.33128906 12.02978516 198.88378906 C10.51551086 204.11491844 8.12912356 207.47195066 4.34228516 211.25878906 C3.42053488 212.87185204 2.50254764 214.48742961 1.61962891 216.12207031 C-0.62508432 219.87698815 -3.32193616 223.31367304 -5.95068359 226.80566406 C-7.80123933 229.21886155 -7.80123933 229.21886155 -8.65771484 232.25878906 C-9.31771484 232.25878906 -9.97771484 232.25878906 -10.65771484 232.25878906 C-10.72990234 232.7834375 -10.80208984 233.30808594 -10.87646484 233.84863281 C-11.98642137 237.27284869 -14.06360575 239.93945782 -16.15771484 242.82128906 C-19.41115465 247.25827149 -19.41115465 247.25827149 -21.65771484 252.25878906 C-22.31771484 252.25878906 -22.97771484 252.25878906 -23.65771484 252.25878906 C-23.77244141 252.84789062 -23.88716797 253.43699219 -24.00537109 254.04394531 C-24.70130746 256.40679512 -25.59148064 257.76419141 -27.09521484 259.69628906 C-29.15637986 262.45043197 -30.42568119 265.03654721 -31.65771484 268.25878906 C-32.31771484 268.58878906 -32.97771484 268.91878906 -33.65771484 269.25878906 C-33.98771484 270.24878906 -34.31771484 271.23878906 -34.65771484 272.25878906 C-35.31771484 272.25878906 -35.97771484 272.25878906 -36.65771484 272.25878906 C-36.77501953 272.85820313 -36.89232422 273.45761719 -37.01318359 274.07519531 C-37.65771484 276.25878906 -37.65771484 276.25878906 -39.97021484 279.19628906 C-43.75825799 284.21764858 -45.04559141 290.26961543 -46.65771484 296.25878906 C-47.31771484 296.25878906 -47.97771484 296.25878906 -48.65771484 296.25878906 C-48.49271484 296.93941406 -48.32771484 297.62003906 -48.15771484 298.32128906 C-47.58682426 301.67527126 -47.59112461 304.86268712 -47.65771484 308.25878906 C-46.99771484 308.25878906 -46.33771484 308.25878906 -45.65771484 308.25878906 C-44.98416985 309.69307907 -44.31911784 311.13135963 -43.65771484 312.57128906 C-43.28646484 313.37179687 -42.91521484 314.17230469 -42.53271484 314.99707031 C-41.65771484 317.25878906 -41.65771484 317.25878906 -41.65771484 320.25878906 C-40.66771484 320.58878906 -39.67771484 320.91878906 -38.65771484 321.25878906 C-37.19287109 323.33300781 -37.19287109 323.33300781 -35.72021484 325.94628906 C-34.00045819 328.94835804 -32.28495341 331.87462902 -30.28271484 334.69628906 C-28.65771484 337.25878906 -28.65771484 337.25878906 -28.65771484 340.25878906 C-27.66771484 340.58878906 -26.67771484 340.91878906 -25.65771484 341.25878906 C-24.19287109 343.33300781 -24.19287109 343.33300781 -22.72021484 345.94628906 C-21.00045819 348.94835804 -19.28495341 351.87462902 -17.28271484 354.69628906 C-15.65771484 357.25878906 -15.65771484 357.25878906 -15.65771484 360.25878906 C-14.66771484 360.58878906 -13.67771484 360.91878906 -12.65771484 361.25878906 C-11.22802734 363.29785156 -11.22802734 363.29785156 -9.78271484 365.88378906 C-7.92423832 369.13147679 -6.03498901 372.20818668 -3.78271484 375.19628906 C-1.65771484 378.25878906 -1.65771484 378.25878906 -1.65771484 381.25878906 C-1.08021484 381.44441406 -0.50271484 381.63003906 0.09228516 381.82128906 C2.75366403 383.52161445 3.74853742 385.42691839 5.19384766 388.18457031 C6.95288453 391.3616063 9.07704645 394.27929267 11.17041016 397.24316406 C12.34228516 399.25878906 12.34228516 399.25878906 12.34228516 402.25878906 C13.33228516 402.58878906 14.32228516 402.91878906 15.34228516 403.25878906 C16.51025391 404.78222656 16.51025391 404.78222656 17.52978516 406.63378906 C17.87396484 407.23964844 18.21814453 407.84550781 18.57275391 408.46972656 C19.34228516 410.25878906 19.34228516 410.25878906 19.34228516 413.25878906 C20.33228516 413.58878906 21.32228516 413.91878906 22.34228516 414.25878906 C24.41758903 417.17958711 25.34228516 418.63425637 25.34228516 422.25878906 C26.33228516 422.58878906 27.32228516 422.91878906 28.34228516 423.25878906 C29.41131454 425.5613139 30.41404332 427.89599167 31.34228516 430.25878906 C31.67228516 430.58878906 32.00228516 430.91878906 32.34228516 431.25878906 C33.18001677 437.5058734 32.6699739 441.94006155 28.82666016 446.98144531 C25.4050167 449.92585955 20.88799505 449.38870865 16.59532166 449.39923096 C15.57890708 449.40368764 15.57890708 449.40368764 14.54195887 449.40823436 C12.27218204 449.41690328 10.00245808 449.4184281 7.73266602 449.41992188 C6.10462329 449.42455148 4.47658164 449.42957634 2.84854126 449.43496704 C-1.57537268 449.44808293 -5.99927145 449.45453491 -10.4232018 449.4589777 C-13.18990167 449.46191091 -15.95659742 449.46601629 -18.72329521 449.47048187 C-27.3874831 449.48415727 -36.05166154 449.49382262 -44.71585947 449.49768376 C-54.70202855 449.50215889 -64.68806036 449.51968121 -74.67418772 449.54868436 C-82.40176771 449.57034482 -90.12930922 449.58039044 -97.85691923 449.58172488 C-102.4677419 449.58277017 -107.07843556 449.58861855 -111.68922615 449.60654449 C-116.03210654 449.62309983 -120.37476199 449.62514471 -124.71766281 449.61640549 C-126.30464597 449.61563898 -127.89164159 449.61992644 -129.47859383 449.62986374 C-138.27739823 449.68169302 -146.28291088 449.21175035 -154.65771484 446.25878906 C-154.65771484 445.59878906 -154.65771484 444.93878906 -154.65771484 444.25878906 C-155.40021484 444.01128906 -156.14271484 443.76378906 -156.90771484 443.50878906 C-164.22286667 440.18372005 -168.43864482 432.50432739 -171.55224609 425.42285156 C-172.51723002 423.24433409 -172.51723002 423.24433409 -174.09130859 421.87597656 C-176.39643578 419.49611957 -177.49421429 416.74431359 -178.90771484 413.75878906 C-181.58918236 408.21317323 -184.58790175 403.05983782 -187.97021484 397.90332031 C-191.36838055 392.57795415 -194.23365902 386.94705771 -197.18896484 381.36816406 C-199.42972362 377.18389002 -201.63841015 373.1377155 -204.47021484 369.32128906 C-206.65771484 366.25878906 -206.65771484 366.25878906 -207.16943359 364.12988281 C-207.33056641 363.51242187 -207.49169922 362.89496094 -207.65771484 362.25878906 C-208.31771484 361.92878906 -208.97771484 361.59878906 -209.65771484 361.25878906 C-210.59089946 359.49610701 -211.51087754 357.72547605 -212.37255859 355.92675781 C-213.38211398 353.83093311 -214.41634797 351.75601999 -215.47412109 349.68457031 C-215.79227783 349.05897217 -216.11043457 348.43337402 -216.43823242 347.78881836 C-217.08020596 346.52734278 -217.72454417 345.26706758 -218.37133789 344.00805664 C-220.65771484 339.48328612 -220.65771484 339.48328612 -220.65771484 337.25878906 C-221.31771484 337.25878906 -221.97771484 337.25878906 -222.65771484 337.25878906 C-226.10328195 331.03071931 -229.44108678 324.78952063 -232.48193359 318.35253906 C-233.66600011 316.24403523 -234.94473396 314.94013177 -236.65771484 313.25878906 C-238.17976884 310.68472716 -239.40347117 307.97215286 -240.65771484 305.25878906 C-240.95033203 304.63101562 -241.24294922 304.00324219 -241.54443359 303.35644531 C-243.69011773 298.5731397 -245.10344801 295.19029945 -243.90771484 290.00878906 C-243.49521484 289.10128906 -243.08271484 288.19378906 -242.65771484 287.25878906 C-241.66771484 286.92878906 -240.67771484 286.59878906 -239.65771484 286.25878906 C-239.28651338 284.93549833 -238.9586607 283.59980378 -238.65771484 282.25878906 C-237.38818359 280.36425781 -237.38818359 280.36425781 -235.84521484 278.44628906 C-233.05843206 274.86711985 -230.81670863 271.24462375 -228.65771484 267.25878906 C-227.99771484 267.25878906 -227.33771484 267.25878906 -226.65771484 267.25878906 C-226.58423828 266.71222656 -226.51076172 266.16566406 -226.43505859 265.60253906 C-225.35860272 262.35694347 -223.44048558 260.34496042 -221.22021484 257.75878906 C-217.43162913 253.3352348 -217.43162913 253.3352348 -214.65771484 248.25878906 C-213.99771484 248.25878906 -213.33771484 248.25878906 -212.65771484 248.25878906 C-212.59068359 247.73027344 -212.52365234 247.20175781 -212.45458984 246.65722656 C-211.31292312 243.22103358 -209.13594292 240.6787341 -206.90771484 237.88378906 C-206.47716797 237.33207031 -206.04662109 236.78035156 -205.60302734 236.21191406 C-203.42136738 233.42931783 -201.19220738 230.69519444 -198.91162109 227.99316406 C-197.06797494 225.75650496 -195.77675458 223.90379209 -194.65771484 221.25878906 C-193.99771484 221.25878906 -193.33771484 221.25878906 -192.65771484 221.25878906 C-192.41794922 220.55753906 -192.17818359 219.85628906 -191.93115234 219.13378906 C-190.44067022 215.76877421 -188.5231091 213.17651182 -186.28271484 210.25878906 C-185.51185547 209.24816406 -184.74099609 208.23753906 -183.94677734 207.19628906 C-182.47197313 205.30370755 -180.98089441 203.42364099 -179.47021484 201.55957031 C-177.56692011 199.25620854 -177.56692011 199.25620854 -176.03271484 196.44628906 C-175.57896484 195.72441406 -175.12521484 195.00253906 -174.65771484 194.25878906 C-173.99771484 194.25878906 -173.33771484 194.25878906 -172.65771484 194.25878906 C-172.55458984 193.68128906 -172.45146484 193.10378906 -172.34521484 192.50878906 C-171.5487502 189.90217749 -170.46706208 188.28525796 -168.65771484 186.25878906 C-167.99771484 186.25878906 -167.33771484 186.25878906 -166.65771484 186.25878906 C-166.55458984 185.67226563 -166.45146484 185.08574219 -166.34521484 184.48144531 C-165.55029528 181.91150648 -164.48017066 180.65455288 -162.65771484 178.69628906 C-160.53938347 176.40991698 -159.66853798 175.29125848 -158.65771484 172.25878906 C-157.99771484 172.25878906 -157.33771484 172.25878906 -156.65771484 172.25878906 C-156.55458984 171.61941406 -156.45146484 170.98003906 -156.34521484 170.32128906 C-156.11833984 169.64066406 -155.89146484 168.96003906 -155.65771484 168.25878906 C-154.66771484 167.92878906 -153.67771484 167.59878906 -152.65771484 167.25878906 C-152.3215826 165.92615858 -151.9888682 164.5926655 -151.65771484 163.25878906 C-150.40783169 161.54466359 -149.08753636 159.88078348 -147.72021484 158.25878906 C-145.28350045 155.357728 -143.19406775 152.73368151 -141.65771484 149.25878906 C-140.99771484 149.25878906 -140.33771484 149.25878906 -139.65771484 149.25878906 C-139.32771484 147.93878906 -138.99771484 146.61878906 -138.65771484 145.25878906 C-137.99771484 145.25878906 -137.33771484 145.25878906 -136.65771484 145.25878906 C-136.55458984 144.61941406 -136.45146484 143.98003906 -136.34521484 143.32128906 C-136.11833984 142.64066406 -135.89146484 141.96003906 -135.65771484 141.25878906 C-134.66771484 140.92878906 -133.67771484 140.59878906 -132.65771484 140.25878906 C-132.52236328 139.69160156 -132.38701172 139.12441406 -132.24755859 138.54003906 C-131.39329346 135.23612622 -129.42885032 133.33140767 -127.22021484 130.75878906 C-123.43162913 126.3352348 -123.43162913 126.3352348 -120.65771484 121.25878906 C-119.99771484 121.25878906 -119.33771484 121.25878906 -118.65771484 121.25878906 C-118.57521484 120.70191406 -118.49271484 120.14503906 -118.40771484 119.57128906 C-117.41875943 116.52200987 -115.81014018 114.60688943 -113.65771484 112.25878906 C-112.99771484 112.25878906 -112.33771484 112.25878906 -111.65771484 112.25878906 C-111.47208984 111.39253906 -111.47208984 111.39253906 -111.28271484 110.50878906 C-109.88262057 105.46844966 -107.33618609 102.9372603 -103.65771484 99.25878906 C-103.10083984 98.33066406 -102.54396484 97.40253906 -101.97021484 96.44628906 C-101.53708984 95.72441406 -101.10396484 95.00253906 -100.65771484 94.25878906 C-99.99771484 94.25878906 -99.33771484 94.25878906 -98.65771484 94.25878906 C-98.55910156 93.46794922 -98.55910156 93.46794922 -98.45849609 92.66113281 C-97.30445576 89.19901182 -95.09386487 86.63612279 -92.84521484 83.82128906 C-92.40628906 83.26119141 -91.96736328 82.70109375 -91.51513672 82.12402344 C-89.51950751 79.58278386 -87.49957312 77.06531781 -85.45458984 74.56347656 C-83.59762522 72.18171759 -82.19447739 69.67608638 -80.73193359 67.04003906 C-78.98385851 64.14141275 -76.95947042 61.74226218 -74.65771484 59.25878906 C-73.99771484 59.25878906 -73.33771484 59.25878906 -72.65771484 59.25878906 C-72.54298828 58.68644531 -72.42826172 58.11410156 -72.31005859 57.52441406 C-71.59589128 55.0440725 -70.58463612 53.19510209 -69.22021484 51.00878906 C-68.78837891 50.30238281 -68.35654297 49.59597656 -67.91162109 48.86816406 C-67.49783203 48.33707031 -67.08404297 47.80597656 -66.65771484 47.25878906 C-65.99771484 47.25878906 -65.33771484 47.25878906 -64.65771484 47.25878906 C-64.65771484 46.59878906 -64.65771484 45.93878906 -64.65771484 45.25878906 C-63.99771484 45.25878906 -63.33771484 45.25878906 -62.65771484 45.25878906 C-62.50302734 44.29972656 -62.50302734 44.29972656 -62.34521484 43.32128906 C-62.00490234 42.30035156 -62.00490234 42.30035156 -61.65771484 41.25878906 C-60.66771484 40.92878906 -59.67771484 40.59878906 -58.65771484 40.25878906 C-58.53009766 39.7109375 -58.40248047 39.16308594 -58.27099609 38.59863281 C-57.35071274 35.08748803 -55.07186268 32.6085807 -52.84521484 29.82128906 C-52.40628906 29.26119141 -51.96736328 28.70109375 -51.51513672 28.12402344 C-49.5046456 25.56385867 -47.46910617 23.02680697 -45.41552734 20.50097656 C-43.59816829 18.31376423 -43.59816829 18.31376423 -42.34521484 15.82128906 C-37.47148488 8.42043985 -28.96781442 3.12028614 -20.40512085 1.20758057 C-13.62780622 -0.10108459 -6.87720988 -0.02174437 0 0 Z " fill="#FEFEFF" transform="translate(773.65771484375,329.7412109375)"/>
<path d="M0 0 C0.66 0.33 1.32 0.66 2 1 C0.77023437 2.21236328 0.77023437 2.21236328 -0.484375 3.44921875 C-1.57305137 4.52850998 -2.6615855 5.60794469 -3.75 6.6875 C-4.28882813 7.21794922 -4.82765625 7.74839844 -5.3828125 8.29492188 C-8.48612827 11.37931499 -11.33672402 14.51576273 -14 18 C-14.66 17.67 -15.32 17.34 -16 17 C-15.566875 16.608125 -15.13375 16.21625 -14.6875 15.8125 C-12.88495519 14.01811244 -12.88495519 14.01811244 -11.625 11.5625 C-9.7643088 8.62833311 -7.75397556 7.0982671 -5 5 C-3.31471312 3.35216394 -1.64302953 1.68997323 0 0 Z " fill="#D3DFFF" transform="translate(318,251)"/>
<path d="M0 0 C-1.57508859 3.66379303 -3.84193573 6.29851305 -6.5 9.25 C-7.2940625 10.14203125 -8.088125 11.0340625 -8.90625 11.953125 C-11 14 -11 14 -13 14 C-11.42491141 10.33620697 -9.15806427 7.70148695 -6.5 4.75 C-5.7059375 3.85796875 -4.911875 2.9659375 -4.09375 2.046875 C-2 0 -2 0 0 0 Z " fill="#4779FF" transform="translate(395,487)"/>
<path d="M0 0 C0.66 0.33 1.32 0.66 2 1 C0.54782324 2.50596108 -0.91192861 4.00462104 -2.375 5.5 C-3.18710937 6.3353125 -3.99921875 7.170625 -4.8359375 8.03125 C-7 10 -7 10 -9 10 C-7.61811547 6.78956118 -6.07578097 4.95063635 -3.375 2.75 C-2.74335937 2.22921875 -2.11171875 1.7084375 -1.4609375 1.171875 C-0.73777344 0.59179688 -0.73777344 0.59179688 0 0 Z " fill="#D6E1FF" transform="translate(740,337)"/>
<path d="M0 0 C0.33 0.66 0.66 1.32 1 2 C0.07421875 3.9453125 0.07421875 3.9453125 -1.3125 6.125 C-1.76238281 6.84945312 -2.21226562 7.57390625 -2.67578125 8.3203125 C-3.11277344 8.87460937 -3.54976562 9.42890625 -4 10 C-4.66 10 -5.32 10 -6 10 C-4.6302836 6.00499382 -2.74277578 3.19990508 0 0 Z " fill="#5583FF" transform="translate(758,571)"/>
<path d="M0 0 C0.8125 1.625 0.8125 1.625 1 4 C-0.46818136 6.24609835 -2.15852858 8.02378677 -4 10 C-4.66 9.67 -5.32 9.34 -6 9 C-3.25 4.125 -3.25 4.125 -1 3 C-0.67 2.01 -0.34 1.02 0 0 Z " fill="#4F7FFF" transform="translate(461,635)"/>
<path d="M0 0 C0.33 0.66 0.66 1.32 1 2 C0.07421875 3.9453125 0.07421875 3.9453125 -1.3125 6.125 C-1.76238281 6.84945313 -2.21226562 7.57390625 -2.67578125 8.3203125 C-3.11277344 8.87460937 -3.54976562 9.42890625 -4 10 C-4.66 10 -5.32 10 -6 10 C-5.67 9.01 -5.34 8.02 -5 7 C-4.34 7 -3.68 7 -3 7 C-2.87625 6.401875 -2.7525 5.80375 -2.625 5.1875 C-2 3 -2 3 0 0 Z " fill="#4E7EFF" transform="translate(832,457)"/>
<path d="M0 0 C0.99 0 1.98 0 3 0 C2 3 2 3 -0.3125 4.25 C-3.09873015 5.0275526 -4.33438378 4.98726527 -7 4 C-6.030625 3.71125 -5.06125 3.4225 -4.0625 3.125 C-0.89335797 2.35785318 -0.89335797 2.35785318 0 0 Z " fill="#5483FF" transform="translate(370,749)"/>
<path d="M0 0 C0.75 1.6875 0.75 1.6875 1 4 C-0.9375 6.75 -0.9375 6.75 -3 9 C-3.66 8.67 -4.32 8.34 -5 8 C-3.625 5.5 -3.625 5.5 -2 3 C-1.34 3 -0.68 3 0 3 C0 2.01 0 1.02 0 0 Z " fill="#4C7DFF" transform="translate(440,662)"/>
</svg>
