<svg version="1.1" id="Layer_1" xmlns="http://www.w3.org/2000/svg" xmlns:xlink="http://www.w3.org/1999/xlink" x="0px" y="0px"
	 width="100%" viewBox="0 0 500 500" enable-background="new 0 0 500 500" xml:space="preserve">
<path fill="#000000" opacity="1.000000" stroke="none" 
	d="
M305.000000,501.000000 
	C203.333359,501.000000 102.166718,501.000000 1.000054,501.000000 
	C1.000036,334.333405 1.000036,167.666794 1.000018,1.000144 
	C167.666565,1.000096 334.333130,1.000096 500.999756,1.000048 
	C500.999847,167.666519 500.999847,334.333038 500.999939,500.999786 
	C435.833344,501.000000 370.666656,501.000000 305.000000,501.000000 
M313.005951,393.970032 
	C312.972260,381.721863 312.938538,369.473724 312.977875,356.518402 
	C313.673309,355.980194 314.375854,354.968170 315.063019,354.978546 
	C320.693542,355.063538 324.327606,359.349426 328.765839,361.881378 
	C337.080292,366.624542 345.198090,371.719086 353.314240,376.800720 
	C358.431610,380.004761 363.629791,383.153870 368.372223,386.863861 
	C374.220856,391.439270 386.881256,392.299133 393.278564,388.347229 
	C400.793335,383.704895 408.507172,379.383789 416.150513,374.950775 
	C426.374939,369.020782 433.536072,360.776337 435.986145,347.993408 
	C435.973206,334.357574 435.960236,320.721710 435.960358,306.311646 
	C433.614746,299.051483 430.937286,291.871094 424.542511,287.161224 
	C419.902863,283.744019 414.834625,280.896240 409.884674,277.915436 
	C399.314240,271.550079 388.644531,265.348114 378.124695,258.900940 
	C374.118225,256.445526 374.125488,252.086517 377.967773,249.748840 
	C382.645966,246.902603 387.513824,244.367065 392.179565,241.501678 
	C398.315430,237.733521 404.013794,233.083862 410.488129,230.080643 
	C417.870667,226.656128 425.099274,223.480621 429.154816,215.954803 
	C431.601990,211.413589 433.750336,206.711319 436.057861,201.128113 
	C436.026154,187.773026 435.994446,174.417938 435.918671,160.375183 
	C435.145020,159.129135 433.757690,157.912659 433.695984,156.632278 
	C433.252686,147.437561 425.999573,143.152267 419.958069,138.676025 
	C412.192688,132.922546 403.628754,128.109055 394.983643,123.729988 
	C389.375061,120.889038 383.136047,118.589867 376.949463,117.757271 
	C367.640564,116.504478 359.972290,121.905212 352.319214,126.406342 
	C341.176575,132.959824 330.121613,139.664169 318.909485,146.095367 
	C317.457672,146.928101 314.696930,147.331924 313.580597,146.515320 
	C311.166016,144.749023 309.503510,142.048645 312.895813,138.546799 
	C312.930420,131.389114 313.045868,124.230446 312.957886,117.074272 
	C312.924988,114.399498 312.417816,111.730568 311.486176,108.498428 
	C311.328766,102.532997 310.509766,96.494934 311.154968,90.617607 
	C312.406769,79.213760 307.752747,70.969528 298.595154,65.135452 
	C288.735046,58.853848 278.660950,52.865242 268.389374,47.284016 
	C257.310760,41.264275 246.049744,40.665363 234.780701,47.512527 
	C225.486801,53.159580 215.694870,58.001087 206.513779,63.815594 
	C197.847458,69.304085 191.505127,76.680313 191.348145,88.479698 
	C191.230194,106.990273 191.112244,125.500839 190.657684,144.619080 
	C188.323868,146.756760 185.892273,147.207428 183.020752,145.494507 
	C170.813461,138.212555 158.677673,130.797913 146.283508,123.845825 
	C134.393539,117.176559 122.167297,114.953903 109.678444,122.809639 
	C101.002213,128.267181 92.164742,133.468399 83.399124,138.783829 
	C73.163452,144.990692 67.864510,153.948013 67.978249,166.049820 
	C68.075294,176.376709 68.142082,186.707733 67.962730,197.032410 
	C67.719513,211.033020 73.806671,221.133438 85.895706,228.023376 
	C98.921333,235.447098 111.784332,243.156036 124.724632,250.729706 
	C128.893661,253.169739 129.238968,255.760788 125.219315,258.353699 
	C117.985207,263.020111 110.535019,267.353333 103.146599,271.778168 
	C98.638100,274.478271 94.126579,277.180206 89.529030,279.723358 
	C76.033020,287.188660 67.359055,297.520782 67.928551,313.969025 
	C68.279953,324.118103 67.806526,334.293640 68.046188,344.449219 
	C68.310997,355.670227 72.728745,364.871735 82.463608,371.008881 
	C90.684196,376.191437 99.274155,380.835297 107.196335,386.431488 
	C116.268677,392.840149 130.241943,392.064423 138.045578,384.512268 
	C138.976364,383.611542 140.232178,383.033722 141.370392,382.362305 
	C150.073029,377.228729 158.858643,372.230774 167.467880,366.945404 
	C174.023956,362.920563 180.359451,358.536346 187.175446,354.060913 
	C188.639908,355.949493 189.815353,357.465363 190.997650,359.922485 
	C190.997360,377.889435 190.970352,395.856476 191.039795,413.823181 
	C191.046432,415.544128 191.654190,417.262756 192.497543,419.407776 
	C191.581940,427.868439 195.784912,435.137695 201.606598,439.388489 
	C212.667526,447.464813 225.166626,453.564819 237.030609,460.549896 
	C248.267426,467.165680 259.163513,465.867279 269.961334,459.442627 
	C276.033203,455.829865 282.261139,452.477509 288.304352,448.818848 
	C297.320038,443.360657 306.280487,437.753632 310.014587,427.040649 
	C310.821136,424.726776 311.631561,422.271454 311.677704,419.866638 
	C311.759888,415.584015 311.260071,411.290192 311.790527,406.821075 
	C312.180176,402.845093 312.569824,398.869141 313.005951,393.970032 
z"/>
<path fill="#0E0E0E" opacity="1.000000" stroke="none" 
	d="
M190.990799,358.981232 
	C189.815353,357.465363 188.639908,355.949493 187.175446,354.060913 
	C180.359451,358.536346 174.023956,362.920563 167.467880,366.945404 
	C158.858643,372.230774 150.073029,377.228729 141.370392,382.362305 
	C140.232178,383.033722 138.976364,383.611542 138.045578,384.512268 
	C130.241943,392.064423 116.268677,392.840149 107.196335,386.431488 
	C99.274155,380.835297 90.684196,376.191437 82.463608,371.008881 
	C72.728745,364.871735 68.310997,355.670227 68.046188,344.449219 
	C67.806526,334.293640 68.279953,324.118103 67.928551,313.969025 
	C67.359055,297.520782 76.033020,287.188660 89.529030,279.723358 
	C94.126579,277.180206 98.638100,274.478271 103.146599,271.778168 
	C110.535019,267.353333 117.985207,263.020111 125.219315,258.353699 
	C129.238968,255.760788 128.893661,253.169739 124.724632,250.729706 
	C111.784332,243.156036 98.921333,235.447098 85.895706,228.023376 
	C73.806671,221.133438 67.719513,211.033020 67.962730,197.032410 
	C68.142082,186.707733 68.075294,176.376709 67.978249,166.049820 
	C67.864510,153.948013 73.163452,144.990692 83.399124,138.783829 
	C92.164742,133.468399 101.002213,128.267181 109.678444,122.809639 
	C122.167297,114.953903 134.393539,117.176559 146.283508,123.845825 
	C158.677673,130.797913 170.813461,138.212555 183.020752,145.494507 
	C185.892273,147.207428 188.323868,146.756760 191.128876,144.024261 
	C191.735840,141.797455 191.987122,140.165604 191.989578,138.533401 
	C192.015076,121.662003 192.000397,104.790543 191.996902,87.919098 
	C191.505127,76.680313 197.847458,69.304085 206.513779,63.815594 
	C215.694870,58.001087 225.486801,53.159580 234.780701,47.512527 
	C246.049744,40.665363 257.310760,41.264275 268.389374,47.284016 
	C278.660950,52.865242 288.735046,58.853848 298.595154,65.135452 
	C307.752747,70.969528 312.406769,79.213760 311.154968,90.617607 
	C310.509766,96.494934 311.328766,102.532997 311.760193,109.241547 
	C312.065155,119.636650 312.096069,129.288620 312.127014,138.940598 
	C309.503510,142.048645 311.166016,144.749023 313.580597,146.515320 
	C314.696930,147.331924 317.457672,146.928101 318.909485,146.095367 
	C330.121613,139.664169 341.176575,132.959824 352.319214,126.406342 
	C359.972290,121.905212 367.640564,116.504478 376.949463,117.757271 
	C383.136047,118.589867 389.375061,120.889038 394.983643,123.729988 
	C403.628754,128.109055 412.192688,132.922546 419.958069,138.676025 
	C425.999573,143.152267 433.252686,147.437561 433.695984,156.632278 
	C433.757690,157.912659 435.145020,159.129135 435.646057,161.003906 
	C435.267975,174.571304 435.150543,187.509933 435.098938,200.448822 
	C435.096771,200.991760 435.707703,201.537155 436.032990,202.081406 
	C433.750336,206.711319 431.601990,211.413589 429.154816,215.954803 
	C425.099274,223.480621 417.870667,226.656128 410.488129,230.080643 
	C404.013794,233.083862 398.315430,237.733521 392.179565,241.501678 
	C387.513824,244.367065 382.645966,246.902603 377.967773,249.748840 
	C374.125488,252.086517 374.118225,256.445526 378.124695,258.900940 
	C388.644531,265.348114 399.314240,271.550079 409.884674,277.915436 
	C414.834625,280.896240 419.902863,283.744019 424.542511,287.161224 
	C430.937286,291.871094 433.614746,299.051483 435.663239,306.982971 
	C435.260071,320.845825 435.142914,334.037262 435.086548,347.229004 
	C435.084137,347.788635 435.645447,348.350708 435.944153,348.911652 
	C433.536072,360.776337 426.374939,369.020782 416.150513,374.950775 
	C408.507172,379.383789 400.793335,383.704895 393.278564,388.347229 
	C386.881256,392.299133 374.220856,391.439270 368.372223,386.863861 
	C363.629791,383.153870 358.431610,380.004761 353.314240,376.800720 
	C345.198090,371.719086 337.080292,366.624542 328.765839,361.881378 
	C324.327606,359.349426 320.693542,355.063538 315.063019,354.978546 
	C314.375854,354.968170 313.673309,355.980194 312.593445,357.095520 
	C312.179047,370.097351 312.149017,382.522095 311.802795,395.222900 
	C311.325623,399.333008 311.164642,403.167053 311.003662,407.001068 
	C311.260071,411.290192 311.759888,415.584015 311.677704,419.866638 
	C311.631561,422.271454 310.821136,424.726776 310.014587,427.040649 
	C306.280487,437.753632 297.320038,443.360657 288.304352,448.818848 
	C282.261139,452.477509 276.033203,455.829865 269.961334,459.442627 
	C259.163513,465.867279 248.267426,467.165680 237.030609,460.549896 
	C225.166626,453.564819 212.667526,447.464813 201.606598,439.388489 
	C195.784912,435.137695 191.581940,427.868439 192.248871,418.728455 
	C191.998444,400.083771 192.023972,382.118317 191.951202,364.153259 
	C191.944214,362.427979 191.325531,360.705170 190.990799,358.981232 
M221.234222,240.911362 
	C221.163345,251.140091 221.079620,261.368805 221.063339,271.597626 
	C221.062592,272.060913 221.671173,272.525208 222.099747,273.687836 
	C222.896912,274.695892 223.491119,276.048401 224.523758,276.656830 
	C231.884262,280.993652 239.552307,284.849060 246.662231,289.553284 
	C250.125381,291.844635 252.846924,291.959442 256.129333,290.069550 
	C264.080719,285.491577 272.096954,281.021454 279.943909,276.271454 
	C281.318970,275.439117 281.997833,273.456665 283.738953,271.566620 
	C283.815918,264.435333 283.992249,257.303070 283.923248,250.173218 
	C283.893707,247.119904 283.353516,244.071518 282.445770,240.706055 
	C280.327850,238.794006 278.428650,236.531799 276.046082,235.043396 
	C271.207184,232.020523 266.130035,229.373383 261.107086,226.652588 
	C257.168884,224.519394 253.319534,221.362961 248.463409,223.718689 
	C245.682419,225.067764 243.252914,227.122238 240.571365,228.699661 
	C235.774109,231.521683 230.871201,234.164734 226.087448,237.008743 
	C224.543045,237.926910 223.233856,239.240692 221.234222,240.911362 
M222.275726,167.579208 
	C223.253845,168.894073 223.963486,170.634857 225.256607,171.449982 
	C230.826050,174.960678 236.462051,178.399902 242.292191,181.447433 
	C244.929749,182.826126 248.001846,185.427292 251.823380,181.457443 
	C251.870743,158.643906 251.918106,135.830383 252.482040,112.586990 
	C253.907715,111.235390 255.158386,109.605141 256.789520,108.580696 
	C263.631317,104.283760 270.746246,100.405357 277.447876,95.907036 
	C282.325714,92.632858 282.368317,90.749199 277.636414,87.469910 
	C271.084656,82.929352 264.076355,79.053574 257.382843,74.709320 
	C253.101242,71.930458 249.504578,73.247299 245.613068,75.613960 
	C239.720581,79.197540 233.643204,82.482910 227.584396,85.784943 
	C224.190796,87.634438 221.642380,90.027603 221.028168,94.973000 
	C221.025452,117.080177 220.999466,139.187424 221.061661,161.294418 
	C221.066971,163.179001 221.659592,165.061951 222.275726,167.579208 
M376.004517,334.046082 
	C376.274780,341.998505 376.545044,349.950897 377.415741,358.285400 
	C378.792450,360.475830 380.028198,361.564850 382.942383,359.801941 
	C389.215576,356.006897 395.987091,353.027802 402.204529,349.152924 
	C404.091217,347.977112 404.830017,344.959412 406.760559,342.310852 
	C406.855133,335.508362 407.035034,328.705322 406.991364,321.903717 
	C406.978577,319.908356 406.331177,317.917084 405.879730,315.178375 
	C405.566010,311.982544 403.015594,311.721619 400.696899,310.423889 
	C392.076569,305.599152 384.013153,299.788239 375.453796,294.844116 
	C356.547974,283.923615 337.471130,273.299133 318.456299,262.567535 
	C315.202148,260.730957 311.744263,262.686127 311.738129,266.498535 
	C311.727234,273.306030 311.850616,280.115204 312.022797,286.920990 
	C312.116211,290.613251 313.616760,293.289642 317.120209,295.228851 
	C326.742035,300.554657 336.145630,306.273682 345.659912,311.795227 
	C353.243561,316.196350 360.949493,320.394409 368.425812,324.969208 
	C371.616821,326.921814 376.236023,327.880493 376.004517,334.046082 
M222.100937,415.680298 
	C223.406952,417.109924 224.504059,418.842468 226.057236,419.913666 
	C231.198502,423.459351 236.401978,426.940765 241.785370,430.099518 
	C244.990112,431.979980 248.614075,434.475494 251.981384,434.376434 
	C255.367020,434.276825 258.766693,431.469086 261.983398,429.551422 
	C266.947296,426.592041 271.517334,422.860168 276.710388,420.430573 
	C281.321991,418.273041 283.210083,415.111450 282.888367,410.497955 
	C282.767761,408.768127 281.776489,406.513794 280.438538,405.648682 
	C279.458557,405.015045 277.110779,405.960388 275.640381,406.720123 
	C270.843048,409.198883 266.324677,412.268250 261.404694,414.445282 
	C255.995422,416.838776 252.022980,414.004669 252.009003,408.335419 
	C251.988922,400.187531 251.980667,392.039642 252.001251,382.968994 
	C251.989716,363.826996 251.999344,344.684875 251.925720,325.543121 
	C251.919952,324.042175 251.333298,322.543427 250.610550,320.487061 
	C247.742920,318.644440 244.889191,316.779755 242.004410,314.964386 
	C237.706314,312.259674 233.546539,309.257782 228.999313,307.063232 
	C227.096176,306.144745 224.351135,306.970764 221.174713,307.339935 
	C221.119797,342.586517 221.059677,377.833069 221.051086,413.079651 
	C221.050934,413.715363 221.666809,414.351196 222.100937,415.680298 
M191.702637,264.411774 
	C189.577042,260.099091 186.327225,260.766235 183.036072,262.642212 
	C176.813263,266.189331 170.695648,269.920441 164.502777,273.520844 
	C156.542953,278.148499 148.562531,282.741058 140.571442,287.314545 
	C133.379593,291.430603 126.111855,295.416382 118.970970,299.618317 
	C113.592575,302.783173 108.223259,306.002106 103.126595,309.590027 
	C100.747032,311.265137 97.512367,313.721588 97.279655,316.081696 
	C96.536980,323.613708 96.669991,331.290436 97.188713,338.861725 
	C97.418732,342.218994 98.435089,346.633026 100.757324,348.508850 
	C105.848785,352.621582 111.911926,355.589874 117.761436,358.678650 
	C120.314301,360.026672 123.316902,360.522949 127.082581,361.711273 
	C127.453316,356.282379 127.893364,352.202759 127.983421,348.115479 
	C128.400757,329.174072 125.218315,333.314148 141.562103,323.891266 
	C141.846161,323.727509 142.060669,323.443756 142.343750,323.277466 
	C155.996338,315.256500 169.716141,307.346893 183.262863,299.151093 
	C186.498230,297.193695 189.157593,294.284210 192.725693,291.317444 
	C192.815674,285.558533 193.027405,279.797882 192.945694,274.041412 
	C192.903076,271.039124 192.343582,268.044220 191.702637,264.411774 
M405.108765,170.279495 
	C405.195679,170.328690 405.282593,170.377899 405.369507,170.427094 
	C405.246338,170.284729 405.123169,170.142365 404.977936,169.194183 
	C404.116180,166.961594 403.908112,163.752579 402.280975,162.663193 
	C394.695099,157.584396 386.733002,153.064224 378.847351,148.443359 
	C378.259583,148.098938 377.099915,148.298920 376.400421,148.642014 
	C367.144409,153.182190 357.761627,157.499664 348.736847,162.465851 
	C338.838745,167.912613 329.242035,173.913391 319.581177,179.783340 
	C308.359283,186.601730 297.158051,193.457306 286.052826,200.463135 
	C280.858917,203.739761 280.803436,207.560669 285.891296,210.835281 
	C293.652222,215.830307 301.544373,220.627869 309.504761,225.298019 
	C310.448669,225.851807 312.431366,225.507233 313.489288,224.857437 
	C322.471344,219.340515 331.249359,213.487808 340.283203,208.059677 
	C355.793701,198.739929 371.440186,189.646439 387.038757,180.473526 
	C393.012909,176.960358 399.012177,173.489914 405.108765,170.279495 
M128.249161,186.353928 
	C130.601288,183.750732 132.904449,183.994095 135.650269,186.000717 
	C139.101913,188.523148 142.757248,190.798584 146.471222,192.924606 
	C160.225616,200.798096 174.108780,208.450272 187.755280,216.504593 
	C189.704712,217.655182 191.168945,220.393661 191.867691,222.697540 
	C192.682693,225.384644 194.062012,226.902634 196.379837,225.575073 
	C204.975876,220.651581 213.505341,215.579071 221.765457,210.117401 
	C225.252182,207.811966 224.475204,203.233871 220.779770,201.203339 
	C215.748260,198.438675 210.595764,195.885712 205.638092,192.996658 
	C189.520477,183.604218 173.498459,174.047638 157.377975,164.660156 
	C148.794266,159.661591 140.160461,154.735062 131.374802,150.107239 
	C129.235825,148.980530 125.763733,147.978210 124.008316,148.937790 
	C115.480728,153.599258 107.278854,158.870712 99.112503,164.159103 
	C98.201378,164.749130 98.247253,166.816986 97.080032,168.301834 
	C96.718361,169.639557 96.022858,170.983917 96.049286,172.313919 
	C96.218773,180.845795 96.546593,189.374527 97.421486,198.337311 
	C98.242348,199.862457 98.672768,202.010727 99.948425,202.810059 
	C107.364655,207.457062 114.961449,211.818237 122.537338,216.206757 
	C125.092148,217.686676 126.630074,216.771927 127.833458,213.537674 
	C127.889465,204.689911 127.945473,195.842148 128.249161,186.353928 
M165.589218,167.515228 
	C165.589218,167.515228 165.473114,167.583115 165.589218,167.515228 
z"/>
<path fill="#212020" opacity="1.000000" stroke="none" 
	d="
M190.994232,359.451843 
	C191.325531,360.705170 191.944214,362.427979 191.951202,364.153259 
	C192.023972,382.118317 191.998444,400.083771 191.991547,418.515808 
	C191.654190,417.262756 191.046432,415.544128 191.039795,413.823181 
	C190.970352,395.856476 190.997360,377.889435 190.994232,359.451843 
z"/>
<path fill="#212020" opacity="1.000000" stroke="none" 
	d="
M191.672516,88.199402 
	C192.000397,104.790543 192.015076,121.662003 191.989578,138.533401 
	C191.987122,140.165604 191.735840,141.797455 191.297180,143.720428 
	C191.112244,125.500839 191.230194,106.990273 191.672516,88.199402 
z"/>
<path fill="#212020" opacity="1.000000" stroke="none" 
	d="
M435.965149,348.452515 
	C435.645447,348.350708 435.084137,347.788635 435.086548,347.229004 
	C435.142914,334.037262 435.260071,320.845825 435.656708,307.370087 
	C435.960236,320.721710 435.973206,334.357574 435.965149,348.452515 
z"/>
<path fill="#212020" opacity="1.000000" stroke="none" 
	d="
M436.045441,201.604767 
	C435.707703,201.537155 435.096771,200.991760 435.098938,200.448822 
	C435.150543,187.509933 435.267975,174.571304 435.668091,161.347733 
	C435.994446,174.417938 436.026154,187.773026 436.045441,201.604767 
z"/>
<path fill="#FBFBF5" opacity="1.000000" stroke="none" 
	d="
M312.119019,394.946838 
	C312.149017,382.522095 312.179047,370.097351 312.556946,357.449097 
	C312.938538,369.473724 312.972260,381.721863 312.774414,394.473450 
	C312.542877,394.976837 312.119019,394.946838 312.119019,394.946838 
z"/>
<path fill="#EBEBEB" opacity="1.000000" stroke="none" 
	d="
M312.511414,138.743698 
	C312.096069,129.288620 312.065155,119.636650 312.080536,109.521820 
	C312.417816,111.730568 312.924988,114.399498 312.957886,117.074272 
	C313.045868,124.230446 312.930420,131.389114 312.511414,138.743698 
z"/>
<path fill="#040203" opacity="1.000000" stroke="none" 
	d="
M311.802795,395.222900 
	C312.119019,394.946838 312.542877,394.976837 312.751160,394.934998 
	C312.569824,398.869141 312.180176,402.845093 311.397095,406.911072 
	C311.164642,403.167053 311.325623,399.333008 311.802795,395.222900 
z"/>
<path fill="#000000" opacity="1.000000" stroke="none" 
	d="
M127.046471,213.885849 
	C126.630074,216.771927 125.092148,217.686676 122.537338,216.206757 
	C114.961449,211.818237 107.364655,207.457062 99.948425,202.810059 
	C98.672768,202.010727 98.242348,199.862457 97.178574,197.664795 
	C96.959465,193.165283 96.894539,189.335220 97.027817,185.512054 
	C97.229065,179.738678 97.568565,173.970108 97.849319,168.199493 
	C98.247253,166.816986 98.201378,164.749130 99.112503,164.159103 
	C107.278854,158.870712 115.480728,153.599258 124.008316,148.937790 
	C125.763733,147.978210 129.235825,148.980530 131.374802,150.107239 
	C140.160461,154.735062 148.794266,159.661591 157.377975,164.660156 
	C173.498459,174.047638 189.520477,183.604218 205.638092,192.996658 
	C210.595764,195.885712 215.748260,198.438675 220.779770,201.203339 
	C224.475204,203.233871 225.252182,207.811966 221.765457,210.117401 
	C213.505341,215.579071 204.975876,220.651581 196.379837,225.575073 
	C194.062012,226.902634 192.682693,225.384644 191.867691,222.697540 
	C191.168945,220.393661 189.704712,217.655182 187.755280,216.504593 
	C174.108780,208.450272 160.225616,200.798096 146.471222,192.924606 
	C142.757248,190.798584 139.101913,188.523148 135.650269,186.000717 
	C132.904449,183.994095 130.601288,183.750732 127.716805,186.842743 
	C127.138451,196.182999 127.092461,205.034424 127.046471,213.885849 
z"/>
<path fill="#000000" opacity="1.000000" stroke="none" 
	d="
M404.988953,169.597076 
	C399.012177,173.489914 393.012909,176.960358 387.038757,180.473526 
	C371.440186,189.646439 355.793701,198.739929 340.283203,208.059677 
	C331.249359,213.487808 322.471344,219.340515 313.489288,224.857437 
	C312.431366,225.507233 310.448669,225.851807 309.504761,225.298019 
	C301.544373,220.627869 293.652222,215.830307 285.891296,210.835281 
	C280.803436,207.560669 280.858917,203.739761 286.052826,200.463135 
	C297.158051,193.457306 308.359283,186.601730 319.581177,179.783340 
	C329.242035,173.913391 338.838745,167.912613 348.736847,162.465851 
	C357.761627,157.499664 367.144409,153.182190 376.400421,148.642014 
	C377.099915,148.298920 378.259583,148.098938 378.847351,148.443359 
	C386.733002,153.064224 394.695099,157.584396 402.280975,162.663193 
	C403.908112,163.752579 404.116180,166.961594 404.988953,169.597076 
z"/>
<path fill="#000000" opacity="1.000000" stroke="none" 
	d="
M192.081894,291.812653 
	C189.157593,294.284210 186.498230,297.193695 183.262863,299.151093 
	C169.716141,307.346893 155.996338,315.256500 142.343750,323.277466 
	C142.060669,323.443756 141.846161,323.727509 141.562103,323.891266 
	C125.218315,333.314148 128.400757,329.174072 127.983421,348.115479 
	C127.893364,352.202759 127.453316,356.282379 127.082581,361.711273 
	C123.316902,360.522949 120.314301,360.026672 117.761436,358.678650 
	C111.911926,355.589874 105.848785,352.621582 100.757324,348.508850 
	C98.435089,346.633026 97.418732,342.218994 97.188713,338.861725 
	C96.669991,331.290436 96.536980,323.613708 97.279655,316.081696 
	C97.512367,313.721588 100.747032,311.265137 103.126595,309.590027 
	C108.223259,306.002106 113.592575,302.783173 118.970970,299.618317 
	C126.111855,295.416382 133.379593,291.430603 140.571442,287.314545 
	C148.562531,282.741058 156.542953,278.148499 164.502777,273.520844 
	C170.695648,269.920441 176.813263,266.189331 183.036072,262.642212 
	C186.327225,260.766235 189.577042,260.099091 191.851913,265.193665 
	C192.028091,274.587891 192.054993,283.200287 192.081894,291.812653 
z"/>
<path fill="#000000" opacity="1.000000" stroke="none" 
	d="
M251.967346,383.891754 
	C251.980667,392.039642 251.988922,400.187531 252.009003,408.335419 
	C252.022980,414.004669 255.995422,416.838776 261.404694,414.445282 
	C266.324677,412.268250 270.843048,409.198883 275.640381,406.720123 
	C277.110779,405.960388 279.458557,405.015045 280.438538,405.648682 
	C281.776489,406.513794 282.767761,408.768127 282.888367,410.497955 
	C283.210083,415.111450 281.321991,418.273041 276.710388,420.430573 
	C271.517334,422.860168 266.947296,426.592041 261.983398,429.551422 
	C258.766693,431.469086 255.367020,434.276825 251.981384,434.376434 
	C248.614075,434.475494 244.990112,431.979980 241.785370,430.099518 
	C236.401978,426.940765 231.198502,423.459351 226.057236,419.913666 
	C224.504059,418.842468 223.406952,417.109924 222.050308,414.865814 
	C221.996078,378.368774 221.992477,342.686218 221.988861,307.003662 
	C224.351135,306.970764 227.096176,306.144745 228.999313,307.063232 
	C233.546539,309.257782 237.706314,312.259674 242.004410,314.964386 
	C244.889191,316.779755 247.742920,318.644440 250.801056,321.231018 
	C250.986115,340.969604 250.956238,359.964325 251.018356,378.958679 
	C251.023743,380.604065 251.636642,382.247437 251.967346,383.891754 
z"/>
<path fill="#000000" opacity="1.000000" stroke="none" 
	d="
M406.094543,342.785309 
	C404.830017,344.959412 404.091217,347.977112 402.204529,349.152924 
	C395.987091,353.027802 389.215576,356.006897 382.942383,359.801941 
	C380.028198,361.564850 378.792450,360.475830 377.176270,357.638000 
	C376.963989,352.861572 377.129242,348.727478 376.978119,344.604980 
	C376.837646,340.773560 376.359741,336.954498 376.030396,333.129974 
	C376.236023,327.880493 371.616821,326.921814 368.425812,324.969208 
	C360.949493,320.394409 353.243561,316.196350 345.659912,311.795227 
	C336.145630,306.273682 326.742035,300.554657 317.120209,295.228851 
	C313.616760,293.289642 312.116211,290.613251 312.022797,286.920990 
	C311.850616,280.115204 311.727234,273.306030 311.738129,266.498535 
	C311.744263,262.686127 315.202148,260.730957 318.456299,262.567535 
	C337.471130,273.299133 356.547974,283.923615 375.453796,294.844116 
	C384.013153,299.788239 392.076569,305.599152 400.696899,310.423889 
	C403.015594,311.721619 405.566010,311.982544 405.925659,316.025452 
	C406.012543,325.510101 406.053528,334.147705 406.094543,342.785309 
z"/>
<path fill="#000000" opacity="1.000000" stroke="none" 
	d="
M221.070267,94.043427 
	C221.642380,90.027603 224.190796,87.634438 227.584396,85.784943 
	C233.643204,82.482910 239.720581,79.197540 245.613068,75.613960 
	C249.504578,73.247299 253.101242,71.930458 257.382843,74.709320 
	C264.076355,79.053574 271.084656,82.929352 277.636414,87.469910 
	C282.368317,90.749199 282.325714,92.632858 277.447876,95.907036 
	C270.746246,100.405357 263.631317,104.283760 256.789520,108.580696 
	C255.158386,109.605141 253.907715,111.235390 251.839172,113.003204 
	C251.154037,136.226135 251.111771,159.032852 251.069489,181.839569 
	C248.001846,185.427292 244.929749,182.826126 242.292191,181.447433 
	C236.462051,178.399902 230.826050,174.960678 225.256607,171.449982 
	C223.963486,170.634857 223.253845,168.894073 222.120514,166.799072 
	C221.972824,143.223694 221.994202,120.428406 221.948700,97.633255 
	C221.946320,96.436066 221.376129,95.240013 221.070267,94.043427 
z"/>
<path fill="#000000" opacity="1.000000" stroke="none" 
	d="
M282.998230,272.005402 
	C281.997833,273.456665 281.318970,275.439117 279.943909,276.271454 
	C272.096954,281.021454 264.080719,285.491577 256.129333,290.069550 
	C252.846924,291.959442 250.125381,291.844635 246.662231,289.553284 
	C239.552307,284.849060 231.884262,280.993652 224.523758,276.656830 
	C223.491119,276.048401 222.896912,274.695892 222.049774,272.870483 
	C221.938889,261.493225 221.877991,250.933380 221.817093,240.373520 
	C223.233856,239.240692 224.543045,237.926910 226.087448,237.008743 
	C230.871201,234.164734 235.774109,231.521683 240.571365,228.699661 
	C243.252914,227.122238 245.682419,225.067764 248.463409,223.718689 
	C253.319534,221.362961 257.168884,224.519394 261.107086,226.652588 
	C266.130035,229.373383 271.207184,232.020523 276.046082,235.043396 
	C278.428650,236.531799 280.327850,238.794006 282.756714,241.330078 
	C283.044525,251.971207 283.021393,261.988312 282.998230,272.005402 
z"/>
<path fill="#FFFFFF" opacity="1.000000" stroke="none" 
	d="
M221.581787,307.171814 
	C221.992477,342.686218 221.996078,378.368774 221.997452,414.519165 
	C221.666809,414.351196 221.050934,413.715363 221.051086,413.079651 
	C221.059677,377.833069 221.119797,342.586517 221.581787,307.171814 
z"/>
<path fill="#575654" opacity="1.000000" stroke="none" 
	d="
M221.049225,94.508209 
	C221.376129,95.240013 221.946320,96.436066 221.948700,97.633255 
	C221.994202,120.428406 221.972824,143.223694 221.972351,166.482300 
	C221.659592,165.061951 221.066971,163.179001 221.061661,161.294418 
	C220.999466,139.187424 221.025452,117.080177 221.049225,94.508209 
z"/>
<path fill="#B0B0B0" opacity="1.000000" stroke="none" 
	d="
M251.446442,181.648499 
	C251.111771,159.032852 251.154037,136.226135 251.580902,113.218140 
	C251.918106,135.830383 251.870743,158.643906 251.446442,181.648499 
z"/>
<path fill="#B0B0B0" opacity="1.000000" stroke="none" 
	d="
M251.984299,383.430359 
	C251.636642,382.247437 251.023743,380.604065 251.018356,378.958679 
	C250.956238,359.964325 250.986115,340.969604 251.004089,321.509338 
	C251.333298,322.543427 251.919952,324.042175 251.925720,325.543121 
	C251.999344,344.684875 251.989716,363.826996 251.984299,383.430359 
z"/>
<path fill="#FFFFFF" opacity="1.000000" stroke="none" 
	d="
M221.525665,240.642441 
	C221.877991,250.933380 221.938889,261.493225 221.997864,272.521057 
	C221.671173,272.525208 221.062592,272.060913 221.063339,271.597626 
	C221.079620,261.368805 221.163345,251.140091 221.525665,240.642441 
z"/>
<path fill="#8F8F8C" opacity="1.000000" stroke="none" 
	d="
M283.368591,271.786011 
	C283.021393,261.988312 283.044525,251.971207 283.056488,241.487503 
	C283.353516,244.071518 283.893707,247.119904 283.923248,250.173218 
	C283.992249,257.303070 283.815918,264.435333 283.368591,271.786011 
z"/>
<path fill="#474746" opacity="1.000000" stroke="none" 
	d="
M97.464676,168.250671 
	C97.568565,173.970108 97.229065,179.738678 97.027817,185.512054 
	C96.894539,189.335220 96.959465,193.165283 96.879021,197.448273 
	C96.546593,189.374527 96.218773,180.845795 96.049286,172.313919 
	C96.022858,170.983917 96.718361,169.639557 97.464676,168.250671 
z"/>
<path fill="#676765" opacity="1.000000" stroke="none" 
	d="
M192.403793,291.565063 
	C192.054993,283.200287 192.028091,274.587891 192.009369,265.510742 
	C192.343582,268.044220 192.903076,271.039124 192.945694,274.041412 
	C193.027405,279.797882 192.815674,285.558533 192.403793,291.565063 
z"/>
<path fill="#8F8F8C" opacity="1.000000" stroke="none" 
	d="
M406.427551,342.548096 
	C406.053528,334.147705 406.012543,325.510101 405.973114,316.398193 
	C406.331177,317.917084 406.978577,319.908356 406.991364,321.903717 
	C407.035034,328.705322 406.855133,335.508362 406.427551,342.548096 
z"/>
<path fill="#FFFFFF" opacity="1.000000" stroke="none" 
	d="
M127.439964,213.711761 
	C127.092461,205.034424 127.138451,196.182999 127.592964,187.162979 
	C127.945473,195.842148 127.889465,204.689911 127.439964,213.711761 
z"/>
<path fill="#575654" opacity="1.000000" stroke="none" 
	d="
M376.017456,333.588013 
	C376.359741,336.954498 376.837646,340.773560 376.978119,344.604980 
	C377.129242,348.727478 376.963989,352.861572 376.876038,357.446960 
	C376.545044,349.950897 376.274780,341.998505 376.017456,333.588013 
z"/>
<path fill="#000000" opacity="1.000000" stroke="none" 
	d="
M405.054382,170.139740 
	C405.123169,170.142365 405.246338,170.284729 405.369507,170.427094 
	C405.282593,170.377899 405.195679,170.328690 405.054382,170.139740 
z"/>
<path fill="#000000" opacity="1.000000" stroke="none" 
	d="
M165.531158,167.549164 
	C165.473114,167.583115 165.589218,167.515228 165.531158,167.549164 
z"/>
</svg>