<svg width="500" height="72" viewBox="0 0 500 72" fill="none" xmlns="http://www.w3.org/2000/svg">
<path d="M318.832 70.6744H310.297V62.5338C307.203 68.2672 301.138 71.802 294.625 71.6667C283.214 71.6667 276.664 63.7741 276.664 50.1312V21.064H285.199V51.067C285.199 59.9969 288.773 63.9658 296.902 63.9658C304.795 63.9658 310.297 58.7116 310.297 48.688V21.064H318.832V70.6744ZM428.663 49.6013C429.858 58.0351 435.315 63.4922 447.019 63.4922C452.165 63.4911 457.272 62.5868 462.105 60.82V68.7126C458.035 70.8774 451.788 71.6667 446.726 71.6667C428.167 71.6667 420.038 60.9553 420.038 45.7339C420.038 30.7493 428.37 20.038 443.456 20.038C458.734 20.038 464.879 30.6591 464.879 45.7339V49.6013H428.663ZM231.112 70.6744H222.577V0.329102H231.169V29.9939C234.348 23.4431 240.301 20.0718 247.935 20.0718C261.126 20.0718 267.779 31.2792 267.779 45.8692C267.734 59.8616 260.788 71.6667 246.897 71.6667C239.659 71.6667 234.1 68.3969 231.112 61.9475V70.6744ZM366.752 69.3891C363.775 70.9789 359.209 71.6441 354.642 71.6441C336.985 71.6441 328.709 60.9328 328.709 45.7114C328.709 30.7268 336.94 20.0154 354.642 20.0154C358.72 19.8959 362.77 20.7303 366.47 22.4508V30.3434C362.944 28.6984 359.083 27.899 355.195 28.0095C342.296 28.0095 337.042 36.1388 337.042 45.7678C337.042 55.3967 342.397 63.526 355.398 63.526C359.233 63.6275 363.056 63.0243 366.673 61.7446L366.752 69.3891ZM133.391 70.6857H106.5V5.4931H131.801C145.094 5.4931 151.544 12.0439 151.544 22.5636C151.544 30.4562 147.97 35.2594 140.629 37.0521C150.258 38.6419 155.017 43.8961 155.017 53.1191C155.017 63.5373 147.97 70.6857 133.391 70.6857V70.6857ZM173.778 70.6857H165.243V21.0753H173.778V70.6857ZM385.006 70.6744H376.482V0.329102H385.017V44.302L406.35 21.0866H417.467L394.139 45.4295L418.448 70.6744H406.835L385.006 47.459V70.6744ZM486.798 21.064H499.989V28.9566H486.798V55.0021C486.809 59.3655 489.368 62.3421 494.645 62.3421C496.449 62.288 498.243 62.0546 500.001 61.6431V69.8739C498.131 70.4084 496.195 70.6744 494.25 70.6632C483.629 70.6632 478.465 64.4168 478.465 55.1825V29.0017H470.426V21.1091H478.465V10.5443H486.798V21.064ZM198.471 21.064H211.663V28.9566H198.471V55.0021C198.471 59.3655 201.053 62.3421 206.363 62.3421C208.167 62.288 209.961 62.0546 211.719 61.6431V69.8739C209.85 70.4084 207.914 70.6744 205.969 70.6632C195.348 70.6632 190.184 64.4168 190.184 55.1825V29.0017H182.144V21.1091H190.184V10.5443H198.471V21.064ZM245.601 28.0095C237.934 28.0095 231.169 32.869 231.169 43.8848V47.8536C231.169 58.8694 237.415 63.729 244.699 63.729C254.328 63.729 259.289 57.3811 259.289 45.8692C259.198 33.9627 254.44 28.0095 245.601 28.0095ZM115.43 41.4156V61.7107H133.684C142.219 61.7107 146.087 58.6326 146.087 52.0818C146.087 45.1363 142.411 41.3705 133.492 41.3705L115.43 41.4156ZM428.573 42.3514H456.253C455.757 33.1284 451.585 27.8629 443.061 27.8629C434.019 27.8178 429.464 33.6696 428.573 42.295V42.3514ZM115.43 14.0283V33.4666H130.606C139.04 33.4666 142.512 29.5993 142.512 23.319C142.512 17.0388 138.747 13.9945 130.606 13.9945L115.43 14.0283ZM169.606 2.02037C169.738 2.01135 169.871 2.00571 170.005 2.00571C173.06 2.00571 175.574 4.52006 175.574 7.57561C175.574 7.70865 175.569 7.8417 175.56 7.97362C175.56 11.24 172.873 13.9269 169.606 13.9269C166.34 13.9269 163.653 11.24 163.653 7.97362C163.644 7.8417 163.639 7.70865 163.639 7.57561C163.639 4.52006 166.153 2.00571 169.208 2.00571C169.342 2.00571 169.475 2.01135 169.606 2.02037Z" fill="#253858"/>
<path d="M2.28409 7.38721C2.27394 7.38721 2.26492 7.38721 2.25478 7.38721C1.0179 7.38721 -0.000244141 8.40535 -0.000244141 9.64223C-0.000244141 9.76287 0.00990345 9.88351 0.0290711 10.003L9.60163 68.1149C9.8463 69.5773 11.1181 70.6619 12.6008 70.6743H58.5243C59.636 70.689 60.6012 69.8783 60.7793 68.7801L70.3519 10.0143C70.371 9.89479 70.3812 9.77415 70.3812 9.6535C70.3812 8.41662 69.363 7.39848 68.1262 7.39848C68.116 7.39848 68.107 7.39848 68.0969 7.39848L2.28409 7.38721ZM42.5926 49.387H27.9349L23.9661 28.652H46.1442L42.5926 49.387Z" fill="#2684FF"/>
<path d="M67.3076 28.6519H46.1443L42.5926 49.3868H27.935L10.6277 69.93C11.1757 70.4047 11.8758 70.6685 12.6008 70.6741H58.5356C59.6473 70.6888 60.6125 69.8781 60.7906 68.7799L67.3076 28.6519Z" fill="url(#paint0_linear_397_956)"/>
<defs>
<linearGradient id="paint0_linear_397_956" x1="72.201" y1="34.4585" x2="37.2256" y2="61.7555" gradientUnits="userSpaceOnUse">
<stop stop-color="#0052CC"/>
<stop offset="0.18" stop-color="#0052CC"/>
<stop offset="1" stop-color="#2684FF"/>
</linearGradient>
</defs>
</svg>
