<svg xmlns:xlink="http://www.w3.org/1999/xlink" viewBox="0 0 2454 1193" fill="none" xmlns="http://www.w3.org/2000/svg" width="2454"  height="1193" >
  <path d="M1227 1192.16C1904.65 1192.16 2454 925.339 2454 596.198C2454 267.056 1904.65 0.234009 1227 0.234009C549.347 0.234009 0 267.056 0 596.198C0 925.339 549.347 1192.16 1227 1192.16Z" fill="#EC2629"></path>
  <path d="M351.044 839.352C354.438 832.385 356.135 818.034 356.135 802.523C356.135 783.825 356.135 744.644 356.135 718.206C356.127 716.196 356.903 714.263 358.299 712.817C359.694 711.371 361.6 710.527 363.608 710.465C394.275 709.721 436.76 704.987 463.854 680.692C488.655 658.571 500.325 630.376 508.96 590.361C518.161 547.594 521.289 503.744 518.249 460.105C514.944 406.513 504.434 375.014 498.36 360.634C492.049 345.747 485.439 332.736 477.728 323.388C465.949 309.64 450.941 299.031 434.051 292.513C421.575 288.393 408.382 286.89 395.299 288.099C382.215 289.308 369.521 293.203 358.011 299.54C358.011 299.54 313.352 322.405 285.961 348.784C276.225 358.133 266.638 366.231 261.249 375.58C254.662 387.475 250.551 400.58 249.162 414.106C248.116 425.119 247.708 436.183 247.941 447.243C247.941 456.026 247.941 467.727 247.941 467.727V734.105C247.941 743.9 248.268 762.478 248.685 770.576C249.164 780.23 250.865 789.784 253.746 799.01C256.724 808.567 261.726 816.367 270.419 826.222C278.681 835.478 288.507 843.208 299.448 849.058C306.718 853.361 314.853 855.995 323.266 856.769C331.215 857.543 342.678 856.59 351.044 839.352ZM403.504 558.921C395.555 597.239 376.173 603.58 364.799 603.878C363.651 603.886 362.513 603.667 361.45 603.234C360.386 602.801 359.419 602.162 358.603 601.355C357.787 600.547 357.138 599.586 356.695 598.527C356.251 597.469 356.02 596.333 356.016 595.185V438.162C356.016 426.253 360.959 421.102 370.337 415.922C381.085 409.967 400.646 406.99 407.017 438.133C414.49 473.86 412.287 516.644 403.504 558.921V558.921Z" fill="#FFFFFF"></path>
  <path d="M2142.36 716.274C2133.67 719.251 2097.17 735.835 2083.27 742.265C2082.56 742.739 2081.73 742.996 2080.88 743.005C2080.03 743.015 2079.19 742.776 2078.47 742.317C2077.76 741.859 2077.19 741.202 2076.84 740.426C2076.49 739.65 2076.37 738.789 2076.51 737.949L2076.24 662.057C2076.34 659.988 2077.1 658.005 2078.4 656.398C2079.71 654.791 2081.5 653.644 2083.5 653.126C2088.89 651.994 2103.87 649.047 2120.18 645.772C2157.25 638.269 2179.94 620.971 2178.48 585.779C2177.26 557.019 2153.68 539.631 2129.53 536.178C2113.69 533.885 2092.52 531.295 2083.68 530.223C2081.66 529.916 2079.81 528.907 2078.45 527.372C2077.09 525.837 2076.32 523.874 2076.27 521.827V453.945C2076.19 453.061 2076.34 452.171 2076.7 451.363C2077.07 450.554 2077.64 449.854 2078.35 449.331C2079.07 448.809 2079.91 448.482 2080.79 448.383C2081.68 448.283 2082.57 448.415 2083.38 448.764C2097.35 453.171 2134 464.752 2149.18 468.772C2157.43 471.21 2166.14 471.629 2174.58 469.993C2184.67 467.385 2193.66 461.641 2200.27 453.588C2206.23 446.174 2209.2 437.659 2209.2 423.815C2209.33 413.678 2206.65 403.704 2201.46 394.994C2196.59 386.155 2190.29 378.179 2182.83 371.385C2175.42 364.535 2167.52 358.236 2159.19 352.539C2151.86 347.209 2132.39 334.05 2125.45 329.703C2094.4 310.281 2062.29 292.618 2029.26 276.796C2014.55 269.532 2002.88 270.425 1992.9 276.528C1983.97 281.888 1977.69 290.79 1974 302.967C1970.81 314.152 1969.06 325.697 1968.79 337.324C1968.34 349.234 1968.1 361.768 1968.1 374.6V808.361C1968.1 821.074 1968.34 833.609 1968.79 845.607C1969.29 858.767 1968.4 866.806 1973.05 880.858C1974.48 886.222 1976.97 891.246 1980.37 895.641C1983.76 900.036 1987.99 903.715 1992.82 906.463C2006.45 915.067 2030.42 910.244 2038.16 906.88C2087.61 885.562 2132.45 849.895 2156.36 834.026C2180.27 818.157 2195.06 801.633 2201.02 790.051C2206.83 779.127 2209.67 766.869 2209.26 754.502C2209.26 740.36 2204.86 730.952 2198.52 723.926C2191.07 715.649 2185.59 713.505 2174.28 711.689C2162.97 709.872 2151 713.267 2142.36 716.274Z" fill="#FFFFFF"></path>
  <path d="M1570.04 716.958C1569.71 713.981 1535.21 424.261 1513.77 262.564C1511.6 246.278 1509.13 230.29 1506.48 214.928C1504.04 200.179 1500.15 185.708 1494.86 171.727C1490.22 159.171 1483.13 147.656 1474.02 137.846C1464.25 127.784 1451.37 121.304 1437.46 119.446C1423.91 117.623 1410.23 116.807 1396.55 117.005C1377.68 116.707 1368.18 119.595 1357.85 128.914C1348.33 137.758 1340.95 148.652 1336.26 160.771C1330.82 174.509 1326.83 188.778 1324.35 203.346C1321.56 218.709 1319.11 234.905 1317.12 251.489C1307.27 328.72 1275.44 573.899 1270.76 616.713C1267.01 651.458 1262.13 688.436 1257.66 723.568V725.384V726.753C1257.51 737.591 1257.07 1010.13 1257.07 1010.13C1256.86 1029.96 1263.77 1048.84 1275.62 1060.75C1280.49 1065.54 1286.28 1069.3 1292.64 1071.82C1298.99 1074.33 1305.79 1075.53 1312.62 1075.36H1315.33C1358.27 1073.58 1370.26 1040.53 1370.26 1000.93C1370.26 999.473 1369.64 854.151 1370.26 809.194C1370.27 807.298 1371.02 805.48 1372.35 804.129C1373.68 802.777 1375.48 801.999 1377.38 801.96C1406.94 801.781 1420.16 801.632 1450.92 799.548C1451.82 799.483 1452.71 799.606 1453.56 799.908C1454.41 800.211 1455.18 800.687 1455.83 801.305C1456.48 801.944 1457 802.709 1457.35 803.554C1457.7 804.398 1457.87 805.304 1457.86 806.217V995.99C1457.62 1017.1 1464.73 1036.39 1476.85 1047.56C1486.8 1056.73 1499.54 1060.39 1514.63 1058.54C1555.39 1053.48 1570.25 1015.94 1570.58 985.301C1570.28 985.063 1570.43 745.451 1570.04 716.958ZM1422.34 323.48C1423.65 337.949 1452.44 657.353 1452.44 657.353C1452.53 658.278 1452.44 659.212 1452.17 660.101C1451.9 660.991 1451.45 661.817 1450.86 662.533C1450.28 663.248 1449.57 663.834 1448.75 664.254C1447.94 664.675 1447.04 664.92 1446.13 664.975C1425.28 666.106 1405.99 666.523 1386.58 666.94C1385.71 667 1384.84 666.868 1384.03 666.554C1383.21 666.24 1382.48 665.752 1381.88 665.124C1381.29 664.46 1380.84 663.679 1380.58 662.832C1380.31 661.986 1380.23 661.093 1380.33 660.211C1381.46 648.302 1409.74 337.324 1411.02 323.48C1412.04 312.107 1413.41 309.873 1416.59 309.754C1419.78 309.635 1421.33 311.898 1422.34 323.48V323.48Z" fill="#FFFFFF"></path>
  <path d="M1203.36 956.003C1199.86 954.396 1196.77 952.023 1194.32 949.059C1191.87 946.096 1190.11 942.618 1189.19 938.884C1187.75 931.843 1187.13 924.66 1187.34 917.477V847.064C1187.34 817.291 1186.72 765.457 1182.16 739.882C1178.84 719.686 1173.53 699.869 1166.29 680.723C1161.11 665.793 1154 651.601 1145.15 638.505C1143.25 635.796 1141.31 633.206 1139.41 630.734C1138.17 629.095 1137.56 627.072 1137.67 625.023C1137.79 622.974 1138.62 621.032 1140.03 619.54C1144.58 614.748 1148.74 609.601 1152.48 604.147C1161.32 591.253 1168.68 577.4 1174.42 562.852C1180.37 547.921 1185.08 532.526 1188.5 516.823C1191.93 501.312 1194.69 486.098 1196.75 471.628C1198.8 457.159 1200.11 443.552 1200.71 431.316C1201.3 419.079 1201.63 409.403 1201.63 401.989C1201.89 370.533 1199.96 339.096 1195.86 307.907C1192.66 283.856 1187.5 260.108 1180.43 236.899C1175.01 218.838 1167.5 201.472 1158.04 185.153C1150.64 172.601 1141.92 160.873 1132.02 150.17C1121.26 139.062 1108.32 130.287 1094.02 124.391C1079.72 118.496 1064.36 115.606 1048.9 115.902C1016.36 115.902 980.211 119.743 961.246 124.387C942.28 129.032 930.252 136.296 920.338 150.498C912.924 161.127 908.786 172.946 905.689 188.875C902.604 205.328 900.882 222.008 900.539 238.745C900.062 256.311 899.794 274.472 899.794 292.872V892.468C899.794 898.422 899.794 904.377 899.794 910.332V985.24C899.794 1019.6 918.045 1059.46 958.447 1063.66C1002.33 1068.22 1018.92 1030.49 1018.92 998.578V685.963C1018.89 683.831 1019.61 681.757 1020.94 680.095C1022.28 678.433 1024.15 677.287 1026.24 676.853C1030.24 676.308 1034.32 676.647 1038.17 677.845C1042.03 679.044 1045.58 681.073 1048.57 683.789C1054.73 690.039 1059.02 697.887 1060.96 706.447C1063.89 718.979 1065.66 731.757 1066.22 744.616C1067.39 760.574 1068.13 781.207 1068.13 800.232V957.76C1068.13 976.278 1070.07 1019.81 1084.92 1043.45C1091.68 1054.19 1106.69 1076.43 1140.51 1076.43C1177.4 1076.43 1195.92 1049.1 1204.61 1028.56C1210.56 1014.21 1212.5 998.787 1212.5 981.757C1212.73 977.074 1212.53 972.38 1211.9 967.733C1211.38 965.289 1210.35 962.982 1208.88 960.961C1207.4 958.941 1205.52 957.252 1203.36 956.003V956.003ZM1081.92 448.137C1080.52 463.351 1078.94 474.605 1076.88 485.889C1075.55 494.862 1073.13 503.64 1069.68 512.03C1066.29 520.978 1060.41 528.769 1052.73 534.482C1045.05 540.196 1035.9 543.593 1026.36 544.274C1022.25 544.631 1018.92 539.987 1018.92 534.449V267.565C1018.92 261.997 1022.25 257.174 1026.36 256.727C1033.62 255.511 1041.05 255.693 1048.24 257.264C1054.7 259.199 1058.39 262.533 1063.13 269.173C1065.95 273.424 1068.3 277.966 1070.15 282.719C1073.1 290.26 1075.39 298.04 1077 305.972C1079.15 315.886 1081.38 331.964 1082.75 345.659C1084.12 359.355 1084.18 376.861 1084.18 395.052C1084.06 415.506 1083.31 432.715 1081.92 448.137Z" fill="#FFFFFF"></path>
  <path d="M839.951 716.628L839.534 711.18L784.812 278.044C784.812 277.746 780.167 249.194 777.577 236.153C775.221 223.288 771.218 210.78 765.668 198.937C760.651 188.072 752.609 178.882 742.504 172.469C733.066 166.753 720.175 166.068 704.276 168.718C693.231 170.583 682.298 173.059 671.526 176.131C658.496 179.976 646.855 187.502 638.002 197.806C629.74 207.224 623.099 217.95 618.352 229.544C613.286 241.931 609.447 254.785 606.889 267.921C604.12 281.468 602.572 291.263 599.892 308.918C599.208 313.593 548.653 646.424 541.627 689.833L541.418 692.125C541.418 692.125 541.418 889.936 541.418 912.444C541.418 934.953 548.296 974.67 589.948 987.502C596.457 989.46 603.327 989.906 610.034 988.807C616.741 987.708 623.109 985.093 628.653 981.16C643.212 969.995 648.839 948.41 648.839 921.317L648.69 767.868C648.654 766.992 648.811 766.119 649.15 765.311C649.49 764.503 650.004 763.779 650.655 763.193C651.316 762.628 652.095 762.22 652.935 761.998C653.776 761.777 654.655 761.748 655.508 761.913C679.178 765.813 698.202 768.493 725.236 770.606C727.15 770.798 728.925 771.693 730.217 773.117C731.51 774.541 732.228 776.394 732.233 778.317V961.183C732.108 977.494 736.299 993.548 744.38 1007.72C748.86 1015.2 754.904 1021.63 762.098 1026.55C769.292 1031.48 777.467 1034.8 786.062 1036.27C789.151 1036.89 792.291 1037.21 795.441 1037.22C804.345 1037.34 812.978 1034.16 819.676 1028.29C835.634 1014.6 841.053 988.365 840.844 970.055L839.951 716.628ZM721.872 635.825C721.968 636.713 721.878 637.612 721.606 638.463C721.334 639.314 720.887 640.099 720.294 640.767C719.702 641.411 718.97 641.91 718.154 642.225C717.338 642.54 716.461 642.662 715.59 642.583C696.982 641.63 679.862 639.933 661.195 637.313C659.345 636.978 657.695 635.943 656.586 634.425C655.478 632.906 654.996 631.02 655.24 629.155C657.384 610.875 662.922 567.079 668.698 517.15C676.945 446.29 685.013 375.788 685.787 368.285C686.591 360.306 687.841 355.811 691.742 355.781C695.642 355.751 696.714 361.08 697.25 366.797C697.696 371.382 712.136 533.078 719.133 609.416L721.872 635.825Z" fill="#FFFFFF"></path>
  <path d="M1908.98 438.401C1908.98 411.605 1909.64 389.931 1907.14 359.026C1904.16 323.567 1897.97 267.862 1865.46 230.497C1832.94 193.132 1805.91 187.475 1776.46 177.263C1747.02 167.051 1690.96 153.832 1678.81 154.665C1667.97 155.571 1657.79 160.249 1650.05 167.885C1641.58 176.291 1635.94 187.123 1633.91 198.878C1631.04 214.095 1629.53 229.54 1629.42 245.026C1628.91 261.52 1628.67 278.937 1628.67 296.831V886.781C1628.67 904.644 1628.91 922.091 1629.42 938.585C1629.53 954.062 1631.04 969.496 1633.91 984.704C1635.94 996.47 1641.58 1007.31 1650.05 1015.73C1657.8 1023.35 1667.97 1028.03 1678.81 1028.95C1690.96 1029.78 1747.02 1016.56 1776.46 1006.35C1805.91 996.136 1833.03 990.45 1865.46 953.085C1897.88 915.72 1904.16 860.044 1907.14 824.585C1909.64 793.651 1908.98 771.917 1908.98 745.21V438.401ZM1800.28 791.328C1800.28 817.231 1798.94 843.252 1781.91 860.55C1777.69 864.867 1769.14 871.686 1752.14 876.598C1751.27 876.889 1750.35 876.959 1749.44 876.801C1748.54 876.644 1747.69 876.264 1746.98 875.697C1746.26 875.13 1745.69 874.392 1745.33 873.552C1744.97 872.711 1744.82 871.793 1744.91 870.882V312.729C1744.83 311.818 1744.97 310.9 1745.33 310.06C1745.7 309.219 1746.26 308.481 1746.98 307.912C1747.69 307.342 1748.54 306.96 1749.44 306.798C1750.34 306.636 1751.27 306.699 1752.14 306.983C1769.11 311.926 1777.66 318.893 1781.91 323.061C1795.97 337.352 1799.33 357.597 1800.07 378.796L1800.25 386.507C1800.25 388.412 1800.25 390.348 1800.25 392.283L1800.28 791.328Z" fill="#FFFFFF"></path>
</svg>