<svg width="226" height="33" viewBox="0 0 226 33" fill="none" xmlns="http://www.w3.org/2000/svg">
<path fill-rule="evenodd" clip-rule="evenodd" d="M54.7029 6.97666H58.4212C58.8569 6.97666 59.4553 6.97666 59.8725 6.86943C60.217 6.78048 60.3439 6.51293 60.3439 6.35227C60.3439 6.19195 60.2353 5.97784 59.8725 5.87062C59.4732 5.74581 58.8387 5.78132 58.4212 5.78132H54.7029V6.97666ZM65.0416 10.4734L66.7831 14.1663H60.2353L58.7118 10.955H54.7029V14.1663H48.5V1.67849H61.5593C62.6838 1.67849 64.5523 1.85674 65.6768 2.67731C66.7288 3.58717 67.0008 5.01454 67.0008 6.31676C67.0008 7.51209 66.7649 9.08151 65.7855 9.88484C65.477 10.1345 65.2593 10.3306 65.0416 10.4734ZM75.0165 5.15714V6.12044H84.7568V9.59923H75.0165V10.6873H84.9563V14.1661H67.7252V1.67835H84.9563V5.15714H75.0165ZM92.9721 5.15714V6.12044H102.712V9.59923H92.9721V14.1661H85.6807V1.67835H102.912V5.15714H92.9721ZM115.934 9.9739C116.623 9.52776 116.986 8.67168 116.986 8.04694C116.986 7.40497 116.623 6.54855 115.934 6.10241C115.154 5.60317 113.975 5.60318 113.249 5.60318C112.524 5.60318 111.291 5.62076 110.493 6.10241C109.785 6.53097 109.459 7.40497 109.459 8.04694C109.459 8.67168 109.785 9.52776 110.493 9.9739C111.291 10.4731 112.506 10.509 113.231 10.509C113.975 10.509 115.136 10.4911 115.934 9.9739ZM106.158 13.0421C104.326 11.8826 103.455 9.65256 103.455 8.01143C103.455 6.35237 104.289 4.12236 106.158 2.98081C108.207 1.73203 111.109 1.5 113.286 1.5C115.48 1.5 118.201 1.73203 120.251 2.98081C122.101 4.10478 122.99 6.3703 122.99 8.01143C122.99 9.65256 122.083 11.9005 120.251 13.0421C118.201 14.3267 115.154 14.4339 113.268 14.4339C111.381 14.4339 108.207 14.3446 106.158 13.0421ZM130.098 6.97666H133.817C134.252 6.97666 134.851 6.97666 135.268 6.86943C135.613 6.78048 135.739 6.51293 135.739 6.35227C135.739 6.19195 135.631 5.97784 135.268 5.87062C134.869 5.74581 134.234 5.78132 133.817 5.78132H130.098V6.97666ZM140.437 10.4734L142.179 14.1663H135.631L134.107 10.955H130.098V14.1663H123.896V1.67849H136.955C138.079 1.67849 139.948 1.85674 141.072 2.67731C142.124 3.58717 142.396 5.01454 142.396 6.31676C142.396 7.51209 142.16 9.08151 141.181 9.88484C140.873 10.1345 140.655 10.3306 140.437 10.4734ZM163.798 14.1661H157.522V9.54575L154.693 14.1661H152.244L149.396 9.5099V14.1661H143.121V1.67832H149.396L153.478 8.36834L157.522 1.71418V1.67832H163.798V14.1661ZM51.1841 20.0111C53.1794 18.8516 56.3354 18.5662 58.2943 18.5662C60.1448 18.5662 63.4094 19.0478 65.2775 20.0111C67.3271 21.0637 67.9259 22.7938 68.0167 24.5425H61.9946C61.9038 23.9891 61.6318 23.454 60.9788 23.1331C60.2535 22.7762 58.893 22.6514 58.276 22.6514C57.6051 22.6514 56.2993 22.6869 55.5376 23.1331C54.7755 23.5792 54.5038 24.4353 54.5038 25.0952C54.5038 25.7554 54.7937 26.5939 55.5376 27.0221C56.3354 27.4858 57.569 27.5572 58.276 27.5572C59.0381 27.5572 60.1448 27.5034 60.9788 27.0221C61.5046 26.7187 61.8313 26.1298 61.9582 25.6127H67.9984C67.8351 27.1293 66.9282 29.127 65.2775 30.0727C63.1553 31.2856 60.2899 31.4642 58.2943 31.4642C56.4627 31.4642 53.2341 31.3035 51.1841 30.0727C49.2978 28.9308 48.5 26.7901 48.5 25.0952C48.5 23.3472 49.1892 21.1706 51.1841 20.0111ZM81.0385 27.04C81.728 26.5938 82.0904 25.7378 82.0904 25.113C82.0904 24.4711 81.728 23.6146 81.0385 23.1685C80.2585 22.6689 79.0796 22.6689 78.354 22.6689C77.6283 22.6689 76.3951 22.6868 75.5973 23.1685C74.8895 23.5971 74.5632 24.4711 74.5632 25.113C74.5632 25.7378 74.8895 26.5938 75.5973 27.04C76.3951 27.5392 77.6105 27.5751 78.3357 27.5751C79.0796 27.5751 80.2406 27.5571 81.0385 27.04ZM71.2621 30.1081C69.4301 28.9487 68.5593 26.7187 68.5593 25.0775C68.5593 23.4185 69.3936 21.1885 71.2621 20.0469C73.3117 18.7981 76.2135 18.5661 78.3901 18.5661C80.5848 18.5661 83.3058 18.7981 85.3551 20.0469C87.2056 21.1709 88.0942 23.4364 88.0942 25.0775C88.0942 26.7187 87.1874 28.9666 85.3551 30.1081C83.3058 31.3928 80.2585 31.5 78.3722 31.5C76.4859 31.5 73.3117 31.4107 71.2621 30.1081ZM105.324 26.5938V31.2321H89.0001V18.7443H96.2007V26.5938H105.324ZM122.373 26.5938V31.2321H106.049V18.7443H113.249V26.5938H122.373ZM130.389 22.2232V23.1865H140.129V26.6653H130.389V27.7534H140.329V31.2322H123.097V18.7444H140.329V22.2232H130.389ZM143.737 20.0111C145.733 18.8516 148.889 18.5662 150.847 18.5662C152.698 18.5662 155.963 19.0478 157.831 20.0111C159.88 21.0637 160.479 22.7938 160.57 24.5425H154.548C154.457 23.9891 154.185 23.454 153.532 23.1331C152.807 22.7762 151.446 22.6514 150.829 22.6514C150.158 22.6514 148.852 22.6869 148.091 23.1331C147.329 23.5792 147.057 24.4353 147.057 25.0952C147.057 25.7554 147.347 26.5939 148.091 27.0221C148.889 27.4858 150.122 27.5572 150.829 27.5572C151.591 27.5572 152.698 27.5034 153.532 27.0221C154.058 26.7187 154.384 26.1298 154.511 25.6127H160.552C160.388 27.1293 159.481 29.127 157.831 30.0727C155.708 31.2856 152.843 31.4642 150.847 31.4642C149.016 31.4642 145.787 31.3035 143.737 30.0727C141.851 28.9308 141.053 26.7901 141.053 25.0952C141.053 23.3472 141.742 21.1706 143.737 20.0111ZM179.251 23.5612H173.882V31.2321H166.626V23.5612H161.113V18.7444H179.251V23.5612ZM179.975 31.2323V18.7445H186.324V31.2323H179.975ZM207.726 18.7445L201.976 31.2322H192.78L187.049 18.7445H193.433L197.387 27.3073L201.323 18.7445H207.726ZM215.56 22.2232V23.1865H225.301V26.6653H215.56V27.7534H225.5V31.2322H208.269V18.7444H225.5V22.2232H215.56Z" fill="black"/>
<path fill-rule="evenodd" clip-rule="evenodd" d="M16.3214 30.1304C8.79358 30.1304 2.69099 24.0279 2.69099 16.5001C2.69099 8.97217 8.79358 2.86956 16.3214 2.86956V30.1304ZM24.9101 0H0V33H33V8.08991C33 3.62197 29.378 0 24.9101 0Z" fill="black"/>
</svg>
