<svg xmlns="http://www.w3.org/2000/svg" xmlns:xlink="http://www.w3.org/1999/xlink" version="1.1" x="0px" y="0px" viewBox="0 0 100 33.1" style="enable-background:new 0 0 100 33.1;" xml:space="preserve" width="157"  height="52" >
<defs>
</defs>
<g fill="#B7804A">
<path d="M48.6,6.4C49,5,49.2,3.4,48.8,2.1c-0.2-0.7-0.6-1.3-1.2-1.6c-0.8-0.5-1.8-0.5-2.6-0.2c-1,0.4-1.9,1.2-2.7,1.9   c-0.6,0.6-1.2,1.3-1.7,2c0.1-0.7,0.3-1.3,0.3-2c0-0.4,0.1-0.8,0-1.2c-0.1-0.4-0.3-0.5-0.7-0.6c-0.5-0.1-1.1-0.1-1.6,0   C38,0.3,37.6,0.5,37.4,1c-0.2,0.5-0.2,1-0.2,1.5c0,0.4-0.1,0.8-0.1,1.3c-0.2,2.2-0.1,4.4-0.2,6.6c0,0.2,0,0.4,0,0.6   c0,0.2,0,0.3-0.1,0.5c-0.3,0.5-0.6,1-1,1.4c-0.7,1-1.6,1.9-2.6,2.5c-0.6,0.4-1.4,0.8-2.2,0.8c-0.9-0.1-1.3-0.9-1.5-1.7   c-0.1-0.3-0.1-0.6-0.1-0.8c2.5-1.3,4.3-3.9,4.8-6.7c0.3-1.6,0.4-3.5-0.7-4.9c-0.8-1-2-1.4-3.2-1.2c-0.6,0.1-1.2,0.4-1.7,0.7   c-0.5,0.4-0.9,0.8-1.2,1.4c-0.9,1.5-1.1,3.3-1.2,5.1c-0.1,1.7-0.1,3.4,0,5.1c0,0.4,0.1,0.8,0.2,1.2c0,0.2,0.1,0.4,0.1,0.5   c0,0.1,0,0.2,0.1,0.3c0,0.1,0,0.2-0.1,0.3c-0.3,0.8-0.7,1.5-1.3,2.2c-0.7,0.9-1.9,2.1-3.1,1.8c-1.1-0.3-1.9-2.2-2.1-3.4   c2.5-1.9,3.8-5.3,3.8-8.4c0-1.1-0.2-2.3-0.7-3.3c-0.7-1.5-2.3-2.2-4.1-1.5c-1.4,0.6-1.9,1.9-2.3,3.3c-0.4,1.4-0.6,3.9-0.5,5.3   c0.1,2,0.4,4.3,1,6.2c0.5,1.6,1,2.8,2.4,3.8c0.5,0.4,1.1,0.7,1.8,0.8c0.7,0.1,1.4,0,2.1-0.1c1.5-0.4,2.8-2,3.7-3.2   c0.2-0.3,0.4-0.6,0.6-1c0.3,0.5,0.8,0.9,1.3,1.2c0.7,0.4,1.4,0.5,2.2,0.4c1.8-0.2,3.3-1.1,4.5-2.6c0.3-0.4,0.6-0.8,0.9-1.3   c0.1-0.1,0.3-0.4,0.3-0.5c0.3,3.7,0.4,5.1,1.7,9.9c0.2,0.7,1.5,1,2,0.5c0.7-0.7,0.3-1.6,0.2-2.4c-0.5-3.4-0.8-6.8-0.8-10.2   c2,0.6,4.1-0.6,5.5-1.9C47.1,9.8,48.1,8.2,48.6,6.4z M19.5,13.3c-0.2-1.3-0.4-3.4-0.2-5.4c0.2-1.8,0.7-2.9,1-3   c0.4,0,0.5,0.6,0.5,0.9C21,6.4,21.1,7,21.1,7.6c0,1.4-0.3,3.3-0.9,4.6C20,12.6,19.8,12.9,19.5,13.3z M29.5,6.1   c0.2-0.9,0.7-2.8,1.6-2.8c0.7,0,0.6,1.6,0.6,1.9c-0.1,1.3-0.3,2.6-0.9,3.8c-0.3,0.7-0.8,1.3-1.5,1.7C29.2,9.3,29.2,7.5,29.5,6.1z    M45.2,6.4c-0.4,0.8-1,1.8-1.9,2.6c-1.7,1.4-2.5,1-2.6,0.9c-0.1-0.1,0-0.4,0-0.5C41,7.8,42,6.3,43.1,5c0.3-0.4,1.8-2.1,2.6-1.6   C46.3,3.7,45.7,5.4,45.2,6.4z" fill="#B7804A"></path>
<path d="M5.8,16.7c-0.4-0.4-0.8-0.9-1.1-1.3c-0.8-0.9-1.5-2-1.7-3.2c-0.2-1.1,0.2-2.1,1.1-2.8C4.8,8.8,5.5,8.2,5,7.5   C4.6,7,3.9,6.9,2.6,7.5c-1.1,0.5-3,2-2.6,5.7c0.3,2.4,2,4.5,3.6,6.1c2.2,2.3,3.1,4.6,3,6.5c-0.1,1.1-0.6,2-1.3,2.9   c-0.3,0.4-0.7,0.8-1.1,1.2c-0.3,0.3-0.7,0.6-1,1c-0.5,0.7-0.3,1.7,0.5,2.1c0.7,0.3,1.5,0.2,2.2-0.2c1.7-0.9,2.8-2.3,3.5-4.2   c0.7-1.9,0.7-4,0.1-5.9C8.9,20.4,7.4,18.5,5.8,16.7z" fill="#B7804A"></path>
<path d="M23.6,25.3c-0.1-0.1-0.3-0.1-0.4-0.1c-1.3-0.2-2.4,0-3.6,0.2c-0.3,0.1-3.4,0.8-3.5,0.7   c-0.9-4.4-1.7-8.5-2-10.1c-0.3-1.4-0.5-2.8-0.8-4.2c-0.2-1.3-0.5-2.6-0.8-3.9c-0.2-0.8-0.5-1.6-1-2.2c-0.2-0.3-0.6-0.5-0.9-0.4   c-0.3,0-0.9,0.4-0.9,0.7c0,0.6,0.1,1.2,0.2,1.8c0.1,0.8,0.2,1.6,0.3,2.5c0.3,2,0.5,4,0.8,6c0.3,2.1,0.6,4.2,0.9,6.3   c0.2,1.6,0.5,3.2,0.8,4.8c0.1,0.6,0.2,1.3,0.5,1.9c0.1,0.3,0.3,0.6,0.7,0.7c0.4,0.1,3.1-0.6,4.1-0.8c1-0.2,5-0.7,5.7-1.1   c0.6-0.3,0.7-0.9,0.7-1.6C24.2,25.8,24,25.5,23.6,25.3z" fill="#B7804A"></path>
<path d="M61.1,1.7c-0.6-0.7-1.9-0.6-2.5,0.9c-1.4,3.6-2.9,5.9-4.5,7c-0.1,0.1-0.4,0.4-0.5,0c0-0.1,0-0.2,0-0.3   c0-0.1,0-0.2,0-0.3c0-0.4,0.1-0.7,0.1-1.1C53.9,6.7,54,5.6,54,4.5c0-1,0.1-2-0.1-3c-0.1-0.6-0.5-1.4-1.2-1.1   c-0.8,0.3-1,1.5-1.2,2.3c-0.3,1-0.4,2-0.6,3c-0.1,1-0.2,2.1-0.2,3.1c0,1-0.1,2,0.2,2.9c0.1,0.3,0.3,0.6,0.5,0.8   c0.2,0.2,0.5,0.4,0.8,0.5c0.6,0.2,1.4,0.2,2,0c1.5-0.4,2.6-1.8,3.5-2.9l0.1-0.1c-1.9,8.1-4.5,12.9-7,12.4c-0.8-0.2-1.3-1.1-1.4-1.8   c-0.2-0.9-0.3-1.8-0.6-2.7c-0.2-0.6-0.8-1.7-1.9-1.2c-1,0.4-0.9,1.8-0.8,3.1c0.1,1.6,1,5.6,4.5,5.9c3.6,0.3,6.5-1.9,8.6-9.7   c0.9-3.2,2.2-9.5,2.3-12.9C61.5,2.8,61.5,2.1,61.1,1.7z" fill="#B7804A"></path>
<path d="M80.7,4.3c-1.3-0.1-2.1,1.1-2.6,2.2c-2.9,6.9-6.3,13.3-8.5,20.3c-0.2,0.7,0.1,1.6,0.8,1.8   c1.2,0.5,1.9-0.8,2.2-1.6c1.1-2.9,2.2-5.7,3.4-8.4c1,0.3,1.9,0.5,2.9,0.8c-0.4,3.2-0.8,5.7-1.1,9.8c-0.1,1,0.9,2.1,2,1.5   c0.7-0.4,0.8-1.5,0.9-2.3c1-7.3,1.8-14.4,2-21.8C82.8,5.5,82,4.4,80.7,4.3z M80,9C80,9,80,9,80,9C80,8.9,80,8.9,80,9   c0.1,0,0.1,0,0.1,0c0,0,0,0,0,0.1c-0.4,2.5-0.7,5-1,7.5c-0.7-0.2-1.3-0.4-2-0.6C78.1,13.7,79,11.4,80,9z" fill="#B7804A"></path>
<path d="M99.1,10.8c-2.4-1.1-4.3-1.9-6.8-2.8c-1.2-0.4-2.4-0.8-3.6-1.1c-0.9-0.2-2.2-0.6-2.8,0.2   C85.1,8,86.1,9.2,87,9.6c1.1,0.4,2.1,0.7,3,1c-0.7,1.8-1.2,3.6-1.7,5.4c-1.6,5.4-3.6,9.4-5,14.8c-0.3,1.4,0.6,2,1.2,1.9   c1-0.2,1.6-1.8,2.3-3.7c2.2-6.1,4.6-11.3,6.1-15.6c0.2-0.6,0.4-1.1,0.6-1.7c1.2,0.4,2.5,0.8,3.9,1.3C99.9,14,100.9,11.6,99.1,10.8z   " fill="#B7804A"></path>
<path d="M68.5,22.8c-0.4-0.2-0.9-0.3-1.4-0.1c-0.4,0.1-0.8,0.3-1.2,0.3c-0.5,0-1-0.3-1.1-0.9c-0.2-0.6-0.1-1.2-0.1-1.8   c0.1-2.6,0.6-5.2,1.3-7.7c0.3-1.2,0.7-2.4,1.1-3.5c0.2-0.6,0.5-1.2,0.8-1.8c0.3-0.5,0.6-1.2,1.2-1.5c0.6-0.3,1.4,0,1.8,0.8   c0.3,0.6,0.3,1.2,0.8,1.7c0.5,0.6,1.7,0.8,2.4-0.3c0.6-1,0-2.4-0.6-3.3c-0.5-0.8-1.2-1.6-2.2-2c-1-0.4-2.3-0.2-3.3,0.2   C67,3.3,66.1,4,65.5,5c-0.8,1.1-1.3,2.2-1.8,3.4c-0.5,1.2-0.9,2.4-1.3,3.6c-0.4,1.2-0.7,2.5-0.9,3.8c-0.2,1.4-0.3,2.8-0.2,4.2   c0.1,1.3,0.3,2.5,0.9,3.7c0.5,1,1.4,1.7,2.5,2.1c0.9,0.3,2.1,0.4,3,0c0.7-0.3,1.7-1.1,1.6-2C69.2,23.3,68.9,23,68.5,22.8z" fill="#B7804A"></path>
</g>
</svg>