<svg xmlns="http://www.w3.org/2000/svg" xmlns:xlink="http://www.w3.org/1999/xlink" viewBox="0 0 155 35" version="1.1"><title>Branding/Logo</title><g id="Symbols" stroke="none" stroke-width="1" fill="none" fill-rule="evenodd"><g id="Navigation/Top-Bar/White" transform="translate(-60.000000, -32.000000)"><g id="Group-2" transform="translate(60.000000, 32.000000)"><g id="Branding/Icon" fill="#1E87FF"><path d="M28.3636364,14.1818182 C36.1960136,14.1818182 42.5454545,20.5310459 42.5454545,28.3636364 L42.5454545,28.3636364 L28.3636364,28.3636364 Z M14.1818182,-8.17124146e-14 C22.0141954,-8.17124146e-14 28.3636364,6.34917997 28.3636364,14.1817116 L28.3636364,14.1817116 L14.1818182,14.1817116 L14.1818182,28.3636364 C6.3492277,28.3636364 -3.01980663e-14,22.0142432 -3.01980663e-14,14.1817116 C-3.01980663e-14,6.34917997 6.3492277,-8.17124146e-14 14.1818182,-8.17124146e-14 Z" id="Combined-Shape"/></g><g id="Branding/Wordmark" transform="translate(49.408044, 6.184839)" fill="#464B50"><path d="M92.6268149,4.9312955 L97.0028783,17.5741722 L101.412371,4.9312955 L104.727273,4.9312955 L98.6275271,21.6120086 L97.7654771,24.0279525 C96.7707558,26.7417439 95.5773409,28.3636364 92.8921575,28.3636364 L90.8366926,28.3636364 L90.8366926,25.6828 L92.660035,25.6828 C93.4888649,25.6828 94.2512548,25.28567 94.8479622,23.5315399 L95.4780986,21.7442462 L89.311704,4.9312955 L92.6268149,4.9312955 Z M19.5599275,4.66663253 C24.7316008,4.66663253 27.4832243,8.34029396 27.4832243,12.5764867 C27.4832243,13.0069891 27.4500043,13.5363567 27.4172021,13.8342043 L14.6533878,13.8342043 C14.9185215,16.978498 16.9739863,19.1295495 19.8912923,19.1295495 C22.3447711,19.1295495 23.935782,18.0708142 24.400236,16.1842379 L27.6156867,16.1842379 C27.0189793,19.6261707 24.0022221,21.8767133 19.8912923,21.8767133 C14.719619,21.8767133 11.5037504,17.8059218 11.5037504,13.1723904 C11.5037504,8.50569528 14.4212653,4.66663253 19.5599275,4.66663253 Z M66.7351656,4.66667424 C68.9233017,4.66667424 71.0119867,5.69245446 72.0399281,7.14894556 L72.0399281,4.93156665 L75.2553788,4.93156665 L75.2553788,21.6118626 L72.0399281,21.6118626 L72.0399281,19.36132 C71.2439003,20.7846474 69.1222042,21.8765464 66.7683856,21.8765464 C61.6297234,21.8765464 58.7456375,18.2360487 58.7456375,13.2717146 C58.7456375,8.30738055 61.6297234,4.66667424 66.7351656,4.66667424 Z M33.1519449,4.93139979 L33.1519449,8.14181237 C33.9145437,5.92443346 35.2406299,4.93139979 37.5944485,4.93139979 L39.6169022,4.93139979 L39.6169022,7.71151863 L37.1966435,7.71151863 C34.1466662,7.71151863 33.1519449,10.4255187 33.1519449,14.0660164 L33.1519449,21.6121129 L29.9362852,21.6121129 L29.9362852,4.93139979 L33.1519449,4.93139979 Z M50.0263129,4.66673682 C53.8056689,4.66673682 56.2589387,7.38052827 56.2589387,11.3520372 L56.2589387,21.6121337 L53.0430701,21.6121337 L53.0430701,11.9811046 C53.0430701,9.33343192 51.4850703,7.54613817 49.1312517,7.54613817 C46.5122995,7.54613817 44.6555282,9.66423456 44.6555282,12.5763825 L44.6555282,21.6121337 L41.4398685,21.6121337 L41.4398685,4.93142065 L44.6555282,4.93142065 L44.6555282,7.87714939 C45.5510072,5.79200812 47.539823,4.66673682 50.0263129,4.66673682 Z M81.8855797,4.93139979 L81.8855797,8.14181237 C82.6481785,5.92443346 83.9740558,4.93139979 86.3280833,4.93139979 L88.3503281,4.93139979 L88.3503281,7.71151863 L85.9300694,7.71151863 C82.8803011,7.71151863 81.8855797,10.4255187 81.8855797,14.0660164 L81.8855797,21.6121129 L78.6699201,21.6121129 L78.6699201,4.93139979 L81.8855797,4.93139979 Z M6.00050328,1.97014122e-14 L6.00050328,4.93137893 L10.940263,4.93137893 L10.940263,7.71149778 L6.00050328,7.71149778 L6.00050328,16.0518543 C6.00050328,17.8389395 6.96200454,18.8317646 8.58644441,18.8317646 L10.940263,18.8317646 L10.940263,21.6118834 L8.32110182,21.6118834 C4.93975972,21.6118834 2.7848436,19.5599058 2.7848436,16.1509282 L2.7848436,7.71149778 L-2.06461111e-13,7.71149778 L-2.06461111e-13,4.93137893 L2.7848436,4.93137893 L2.7848436,1.97014122e-14 L6.00050328,1.97014122e-14 Z M67.1331795,7.47974821 C64.0497732,7.47974821 62.0275284,9.7966182 62.0275284,13.2717146 C62.0275284,16.746811 64.0497732,19.063681 67.1331795,19.063681 C70.2493879,19.063681 72.2718417,16.746811 72.2718417,13.2717146 C72.2718417,9.7966182 70.2493879,7.47974821 67.1331795,7.47974821 Z M19.5599275,7.24818635 C16.9405574,7.24818635 15.2498863,8.70446888 14.7526301,11.4845877 L24.2343446,11.4845877 C24.0354421,8.93598901 22.311551,7.24818635 19.5599275,7.24818635 Z" id="Combined-Shape"/></g></g></g></g></svg>