<svg xmlns="http://www.w3.org/2000/svg" xmlns:xlink="http://www.w3.org/1999/xlink" version="1.1" id="Layer_1" x="0px" y="0px" width="247.139" height="77.825" viewBox="0 0 247.139 77.825" enable-background="new 0 0 247.139 77.825" xml:space="preserve">
<g id="XMLID_21_">
	<g id="XMLID_362_">
		<path id="XMLID_363_" fill="#010101" d="M53.114,13.828L40.213,0L29.764,4.439l0.06,25.07c-2.69-0.448-5.067-1.524-6.473-3.05    L10.449,12.632L0,17.072l0.119,39.944l4.515,4.873c2.407,2.602,4.799,5.202,7.251,7.743c4.978,5.188,12.213,8.103,20.375,8.192    c0.135,0,0.27,0,0.404,0c9.119,0,17.146-3.318,21.541-8.909c3.289-4.187,3.274-8.477,3.244-12.617v-0.404l0.016-24.546    c0-0.822,0-1.63,0.015-2.437C57.569,24.128,57.658,18.701,53.114,13.828z M3.543,19.449l6.01-2.557l11.227,12.034    c4.126,4.41,12.797,5.74,19.374,2.945c3.229-1.376,5.337-3.483,6.174-5.785c-0.344-0.942-0.912-1.854-1.719-2.706L33.381,11.347    l-0.015-4.545l0,0l0,0l6.01-2.557L50.603,16.28c2.272,2.437,3.304,5.172,3.214,7.848c0-0.119,0.016-0.239,0.016-0.358    c0.015,1.823,0.149,3.707-0.03,5.531C52.636,41.274,35.624,43.95,26.355,42.007C16.234,39.899,10.255,31.154,3.573,23.993    L3.543,19.449z M51.425,66.718c-4.38,5.576-12.348,7.64-19.135,7.564c-6.652-0.074-13.2-2.242-17.85-7.101    c-3.647-3.797-7.19-7.714-10.793-11.556L3.633,47.18c6.682,7.16,12.662,15.891,22.782,18.014    c9.269,1.929,26.28-0.732,27.446-12.707c0.016-0.149,0.016-0.299,0.03-0.448c0,1.286,0.015,2.571,0.015,3.857    C53.937,59.871,54.056,63.385,51.425,66.718z M53.847,45.042C52.681,57.017,35.668,59.692,26.4,57.749    C16.279,55.641,10.3,46.896,3.617,39.735l-0.015-8.387c4.948,5.307,9.956,12.602,16.579,15.891    c9.552,4.739,25.473,3.962,31.871-5.74c1.24-1.884,1.734-4.066,1.898-6.339C54.056,38.494,54.16,41.812,53.847,45.042z"/>
	</g>
	<g id="XMLID_23_">
		<g id="XMLID_346_">
			<path id="XMLID_360_" fill="#010101" d="M66.494,42.127V23.68h9.298v18.208c0,3.782,1.823,5.89,5.008,5.89     c3.14,0,4.963-2.107,4.963-5.89V23.68h9.299v18.447c0,9.478-5.486,15.323-14.262,15.323     C71.979,57.45,66.494,51.619,66.494,42.127z"/>
		</g>
		<g id="XMLID_342_">
			<path id="XMLID_343_" fill="#010101" d="M117.844,56.373l-8.432-13.395v13.395h-9.328V23.68h18.402     c6.189,0,10.076,4.396,10.076,11.018c0,5.845-2.945,9.896-7.459,10.375l7.729,11.301H117.844z M114.675,39.511     c2.766,0,4.216-1.36,4.216-3.917c0-2.437-1.346-3.692-3.962-3.692h-5.517v7.609H114.675z"/>
		</g>
		<g id="XMLID_337_">
			<path id="XMLID_338_" fill="#010101" d="M160.973,46.478c0,5.65-3.588,9.896-11.915,9.896h-16.534V23.68h17.058     c6.906,0,10.374,3.603,10.374,8.267c0,3.229-1.524,5.517-4.515,6.398C159.208,39.376,160.973,42.411,160.973,46.478z      M141.673,31.304v5.411h5.382c2.018,0,2.989-0.927,2.989-2.571c0-1.913-0.896-2.854-3.064-2.854h-5.307V31.304z M150.926,45.535     c0-1.868-1.121-2.795-3.588-2.795h-5.68v6.024h5.411C149.73,48.765,150.926,47.688,150.926,45.535z"/>
		</g>
		<g id="XMLID_332_">
			<path id="XMLID_333_" fill="#010101" d="M182.364,50.109h-9.821l-1.6,6.264h-9.224l9.224-32.693h13.364l9.149,32.693h-9.479     L182.364,50.109z M180.675,43.577l-3.214-12.468l-3.214,12.468H180.675z"/>
		</g>
		<g id="XMLID_328_">
			<path id="XMLID_329_" fill="#010101" d="M225.298,23.68v32.693h-11.899l-9.179-20.645v20.645h-8.282V23.68h12.273l8.851,20.271     V23.68H225.298z"/>
		</g>
		<g id="XMLID_321_">
			<path id="XMLID_322_" fill="#010101" d="M247.139,31.797c0,5.472-3.856,9.583-8.969,9.583c-5.113,0-8.97-4.111-8.97-9.583     c0-5.501,3.842-9.612,8.97-9.612C243.282,22.2,247.139,26.311,247.139,31.797z M245.21,31.797c0-4.306-2.915-7.34-7.04-7.34     c-4.127,0-7.057,3.05-7.057,7.34c0,4.291,2.915,7.311,7.057,7.311C242.311,39.107,245.21,36.103,245.21,31.797z M240.65,33.053     l2.049,3.513h-3.14l-2.152-3.856v3.856h-2.855v-9.522h5.337c1.898,0,2.975,1.286,2.975,3.095     C242.863,31.901,241.847,32.993,240.65,33.053z M239.918,30.526c0-0.702-0.344-1.166-1.15-1.166h-1.346v2.392h1.256     C239.59,31.737,239.918,31.229,239.918,30.526z"/>
		</g>
	</g>
</g>
</svg>